<?xml version="1.0" encoding="UTF-8"?>
<svg width="157px" height="40px" viewBox="0 0 157 40" version="1.1" xmlns="http://www.w3.org/2000/svg" xmlns:xlink="http://www.w3.org/1999/xlink">
    <title>appStore.dark</title>
    <g id="Support-Site-svg" stroke="none" stroke-width="1" fill="none" fill-rule="evenodd">
        <g id="AppStore-badges-dark&amp;light" transform="translate(-210.000000, -210.000000)" fill-rule="nonzero">
            <g id="Download_on_the_Mac_App_Store_Badge_US-UK_RGB_wht_092917" transform="translate(210.000000, 210.000000)">
                <g id="Group">
                    <path d="M146.57123,-0.00013 L9.53468,-0.00013 C9.16798,-0.00013 8.80568,-0.00013 8.43995,0.002 C8.1338,0.004 7.83009,0.00981 7.521,0.0147 C6.84951368,0.0226018036 6.17960647,0.0816762599 5.5171,0.19141 C4.85552408,0.303532628 4.21467252,0.51491574 3.61622,0.81841 C3.0184995,1.12447185 2.47234513,1.52216766 1.99757,1.99707 C1.5203025,2.47063699 1.12246318,3.01801638 0.81935,3.61816 C0.515400242,4.21710912 0.304640498,4.8589383 0.19435,5.52148 C0.0830109412,6.18318491 0.0230983806,6.85252054 0.01515,7.52348 C0.00587,7.83008 0.00489,8.1377 0,8.44434 L0,31.5586 C0.00489,31.8691 0.00587,32.1699 0.01514,32.4805 C0.023090818,33.1514262 0.0830033796,33.8207284 0.19434,34.4824 C0.304325953,35.145329 0.515098158,35.7875266 0.81934,36.3867 C1.12231859,36.9849036 1.52021726,37.530067 1.99757,38.001 C2.47054494,38.4780139 3.01705233,38.8759803 3.61622,39.1797 C4.21466797,39.4840065 4.85545044,39.6966478 5.5171,39.8105 C6.1797191,39.9193547 6.84955741,39.9784532 7.521,39.9873 C7.83009,39.9941 8.1338,39.998 8.43995,39.998 C8.80567,40 9.168,40 9.53468,40 L146.57123,40 C146.93063,40 147.29583,40 147.65523,39.998 C147.95993,39.998 148.27243,39.9941 148.57713,39.9873 C149.247303,39.9789237 149.91588,39.9198215 150.57713,39.8105 C151.240914,39.6958464 151.883994,39.4832614 152.48533,39.1797 C153.083957,38.8758046 153.62996,38.4778491 154.10253,38.001 C154.578648,37.5282218 154.977392,36.9834573 155.28413,36.3867 C155.586089,35.7870908 155.794855,35.1449445 155.90323,34.4824 C156.014745,33.8206376 156.076783,33.1514843 156.08883,32.4805 C156.09273,32.1699 156.09273,31.8691 156.09273,31.5586 C156.10053,31.1953 156.10053,30.834 156.10053,30.4648 L156.10053,9.53613 C156.10053,9.16992 156.10053,8.80664 156.09273,8.44434 C156.09273,8.1377 156.09273,7.83008 156.08883,7.52344 C156.076786,6.85242244 156.014747,6.18323567 155.90323,5.52144 C155.794553,4.8592816 155.585799,4.21750328 155.28413,3.61812 C154.666854,2.41519608 153.688033,1.4360254 152.48533,0.81832 C151.883992,0.51556738 151.240843,0.30424041 150.57713,0.19132 C149.915995,0.0811027831 149.247348,0.0220077649 148.57713,0.01456 C148.27243,0.00968 147.95993,0.00382 147.65523,0.00187 C147.29583,-0.00013 146.93063,-0.00013 146.57123,-0.00013 L146.57123,-0.00013 Z" id="Path" fill="#000000"></path>
                    <path d="M8.44483,39.125 C8.14015,39.125 7.84278,39.1211 7.54054,39.1143 C6.91432177,39.1061407 6.28956717,39.051625 5.6714,38.9512 C5.0949903,38.8519282 4.53660424,38.6672645 4.01466,38.4033 C3.4975017,38.1415227 3.02581177,37.7982729 2.61766,37.3867 C2.20360033,36.9799753 1.85887673,36.508244 1.59715,35.9902 C1.33253897,35.4687893 1.14941257,34.9098996 1.05415,34.333 C0.9512739,33.7131149 0.895613912,33.0863133 0.88765,32.458 C0.88131,32.2471 0.87301,31.5449 0.87301,31.5449 L0.87301,8.44434 C0.87301,8.44434 0.88185,7.75293 0.8877,7.5498 C0.895325556,6.92248204 0.950661879,6.29665306 1.05323,5.67773 C1.14866903,5.09925015 1.33193716,4.53874899 1.59669,4.01563 C1.85745497,3.49794394 2.20026472,3.02586041 2.61183,2.61768 C3.02293283,2.20562142 3.49613161,1.86060412 4.01417,1.59521 C4.53491467,1.3320936 5.09224545,1.14873255 5.66749,1.05127 C6.28768733,0.949836139 6.91461084,0.894996084 7.543,0.88721 L8.44532,0.875 L147.65032,0.875 L148.56342,0.8877 C149.186093,0.895099198 149.807322,0.949450006 150.42182,1.05029 C151.002888,1.14897507 151.566027,1.33361553 152.09272,1.59814 C153.130538,2.13298605 153.974992,2.97916295 154.50772,4.01807 C154.768247,4.53757756 154.948689,5.09350676 155.04292,5.66699 C155.146709,6.29099138 155.204797,6.92173834 155.21672,7.5542 C155.21962,7.8374 155.21962,8.1416 155.21962,8.44434 C155.22752,8.81934 155.22752,9.17627 155.22752,9.53613 L155.22752,30.4648 C155.22752,30.8281 155.22752,31.1826 155.21962,31.54 C155.21962,31.8652 155.21962,32.1631 155.21572,32.4697 C155.204055,33.0908757 155.146936,33.7103642 155.04482,34.3232 C154.95151,34.9042612 154.76938,35.4675131 154.50482,35.9932 C154.241243,36.5056211 153.898499,36.9732662 153.48922,37.3789 C153.080701,37.7926846 152.608179,38.1379427 152.08982,38.4014 C151.564586,38.6673937 151.002276,38.8527403 150.42182,38.9512 C149.8037,39.052161 149.178885,39.1066802 148.55262,39.1143 C148.25972,39.1211 147.95302,39.125 147.65522,39.125 L146.57122,39.127 L8.44483,39.125 Z" id="Path" fill="#F1F1F2"></path>
                </g>
                <g id="Group" transform="translate(35.000000, 17.000000)" fill="#000000">
                    <polygon id="Path" points="11.14895 13.49474 11.14895 4.3546 11.0884 4.3546 7.34523 13.4 5.91652 13.4 2.16359 4.3546 2.104 4.3546 2.104 13.49474 0.34816 13.49474 0.34816 1.07628 2.57765 1.07628 6.5962 10.87853 6.66456 10.87853 10.6753 1.07628 12.9126 1.07628 12.9126 13.49474"></polygon>
                    <path d="M14.396,10.9215 C14.396,9.3385 15.60889,8.38244 17.76123,8.2535 L20.23975,8.11532 L20.23975,7.42684 C20.23975,6.42 19.57666,5.85164 18.44875,5.85164 C17.5843868,5.73668488 16.7695308,6.2828493 16.54738,7.12605 L14.8091,7.12605 C14.86086,5.49031 16.3843,4.32918 18.50051,4.32918 C20.66067,4.32918 22.08938,5.50789 22.08938,7.28918 L22.08938,13.49475 L20.30813,13.49475 L20.30813,12.00548 L20.26513,12.00548 C19.6841039,13.0339884 18.5889228,13.6642982 17.40773,13.65 C16.6375443,13.7253603 15.8713364,13.472059 15.29783,12.9524865 C14.7243236,12.4329139 14.396825,11.6953634 14.396,10.9215 L14.396,10.9215 Z M20.23977,10.10412 L20.23977,9.40685 L18.01026,9.54455 C16.89991,9.61389 16.27198,10.09533 16.27198,10.86975 C16.27198,11.66175 16.92628,12.17834 17.92432,12.17834 C18.5082836,12.2179568 19.0834952,12.0200439 19.5194543,11.6295023 C19.9554134,11.2389608 20.215162,10.6888984 20.23977,10.10411 L20.23977,10.10412 Z" id="Shape"></path>
                    <path d="M29.89309,7.55577 C29.7246201,6.52887872 28.7965356,5.80297474 27.7593,5.88682 C26.33059,5.88682 25.3843,7.08311 25.3843,8.96836 C25.3843,10.89609 26.33938,12.05723 27.7759,12.05723 C28.8004146,12.15983 29.7278897,11.44753 29.89309,10.43123 L31.68309,10.43123 C31.4514987,12.3780113 29.7115991,13.7862215 27.7593,13.607 C25.1773,13.607 23.49075,11.84235 23.49075,8.96833 C23.49075,6.15339 25.17727,4.32917 27.74175,4.32917 C29.7085327,4.1623869 31.449747,5.5938311 31.66655,7.55573 L29.89309,7.55577 Z" id="Path"></path>
                    <path d="M43.7593,10.13829 L39.0259,10.13829 L37.88918,13.49474 L35.8843,13.49474 L40.3677,1.07628 L42.4507,1.07628 L46.9341,13.49474 L44.895,13.49474 L43.7593,10.13829 Z M39.51614,8.58946 L43.26814,8.58946 L41.41853,3.14171 L41.36677,3.14171 L39.51614,8.58946 Z" id="Shape"></path>
                    <path d="M56.61672,8.96837 C56.61672,11.78185 55.11086,13.58946 52.8384,13.58946 C51.6637853,13.6509046 50.5573624,13.0356707 49.98977,12.00546 L49.94677,12.00546 L49.94677,16.48983 L48.0884,16.48983 L48.0884,4.44054 L49.88723,4.44054 L49.88723,5.9464 L49.92141,5.9464 C50.5142167,4.92264629 51.6218337,4.30767661 52.80422,4.34581 C55.10207,4.34581 56.61672,6.16222 56.61672,8.96837 Z M54.70656,8.96837 C54.70656,7.13487 53.75929,5.9298 52.31398,5.9298 C50.89406,5.9298 49.93898,7.16027 49.93898,8.96837 C49.93898,10.79259 50.89406,12.01427 52.31398,12.01427 C53.7593,12.01427 54.70656,10.818 54.70656,8.96837 Z" id="Shape"></path>
                    <path d="M66.58156,8.96837 C66.58156,11.78185 65.0757,13.58946 62.80324,13.58946 C61.6286253,13.6509046 60.5222024,13.0356707 59.95461,12.00546 L59.91161,12.00546 L59.91161,16.48983 L58.05321,16.48983 L58.05321,4.44054 L59.85204,4.44054 L59.85204,5.9464 L59.88622,5.9464 C60.4790283,4.92264792 61.5866443,4.30767884 62.76903,4.34581 C65.06691,4.34581 66.58156,6.16222 66.58156,8.96837 Z M64.67141,8.96837 C64.67141,7.13487 63.72413,5.9298 62.27882,5.9298 C60.8589,5.9298 59.90382,7.16027 59.90382,8.96837 C59.90382,10.79259 60.8589,12.01427 62.27882,12.01427 C63.72414,12.01427 64.67141,10.818 64.67141,8.96837 L64.67141,8.96837 Z" id="Shape"></path>
                    <path d="M73.1675,10.03478 C73.3052,11.26623 74.5015,12.07478 76.13625,12.07478 C77.70266,12.07478 78.82961,11.26619 78.82961,10.15583 C78.82961,9.19196 78.14992,8.61483 76.54055,8.21931 L74.93118,7.83113 C72.65091,7.28035 71.59231,6.21394 71.59231,4.48347 C71.59231,2.34089 73.4595,0.86921 76.11086,0.86921 C78.73486,0.86921 80.53371,2.34089 80.59426,4.48347 L78.71826,4.48347 C78.60596,3.24421 77.58154,2.49617 76.08447,2.49617 C74.5874,2.49617 73.56298,3.25301 73.56298,4.35457 C73.56298,5.2325 74.21729,5.7491 75.81787,6.14457 L77.18603,6.48051 C79.73388,7.08305 80.79248,8.10651 80.79248,9.92338 C80.79248,12.24662 78.94189,13.7017 75.99853,13.7017 C73.24462,13.7017 71.38525,12.2808 71.26513,10.0347 L73.1675,10.03478 Z" id="Path"></path>
                    <path d="M84.80324,2.298 L84.80324,4.44058 L86.52492,4.44058 L86.52492,5.91226 L84.80324,5.91226 L84.80324,10.90396 C84.80324,11.67935 85.14797,12.04068 85.9048,12.04068 C86.1091914,12.0371159 86.3132521,12.0227626 86.51613,11.99768 L86.51613,13.46057 C86.1758583,13.5241496 85.8300008,13.5529445 85.4839,13.54651 C83.6509,13.54651 82.93605,12.85803 82.93605,11.10217 L82.93605,5.91222 L81.61964,5.91222 L81.61964,4.44054 L82.93605,4.44054 L82.93605,2.298 L84.80324,2.298 Z" id="Path"></path>
                    <path d="M87.521,8.96837 C87.521,6.11925 89.19873,4.32921 91.81495,4.32921 C94.43995,4.32921 96.10987,6.11921 96.10987,8.96837 C96.10987,11.82482 94.44874,13.60704 91.81495,13.60704 C89.18215,13.60704 87.521,11.82482 87.521,8.96837 Z M94.21633,8.96837 C94.21633,7.01378 93.3208,5.86046 91.81494,5.86046 C90.30908,5.86046 89.41357,7.02257 89.41357,8.96837 C89.41357,10.93028 90.30908,12.07482 91.81494,12.07482 C93.3208,12.07482 94.21633,10.93028 94.21633,8.96837 L94.21633,8.96837 Z" id="Shape"></path>
                    <path d="M97.6421,4.44054 L99.41457,4.44054 L99.41457,5.98154 L99.45757,5.98154 C99.704746,4.98952841 100.613703,4.30679156 101.6353,4.3458 C101.849464,4.34505223 102.063037,4.36831075 102.27202,4.41514 L102.27202,6.15342 C102.001651,6.07080332 101.71961,6.03287129 101.43702,6.04112 C100.890668,6.01895544 100.361921,6.23669473 99.9896115,6.63716597 C99.617302,7.03763722 99.4386266,7.58083074 99.5005,8.12412 L99.5005,13.49473 L97.6421,13.49473 L97.6421,4.44054 Z" id="Path"></path>
                    <path d="M110.84035,10.83556 C110.59035,12.47911 108.98976,13.60704 106.94191,13.60704 C104.30812,13.60704 102.67336,11.84239 102.67336,9.01134 C102.67336,6.17101 104.31691,4.32921 106.86379,4.32921 C109.36867,4.32921 110.94387,6.04991 110.94387,8.79552 L110.94387,9.43224 L104.54934,9.43224 L104.54934,9.54454 C104.489637,10.2185716 104.722382,10.8857694 105.18837,11.3764199 C105.654358,11.8670704 106.308677,12.1338833 106.98489,12.10899 C107.886732,12.1934896 108.736993,11.6756277 109.07571,10.83555 L110.84035,10.83556 Z M104.55812,8.13292 L109.08449,8.13292 C109.118215,7.52725749 108.897747,6.93498308 108.4762,6.49879155 C108.054654,6.06260001 107.470251,5.82204041 106.86379,5.83507 C106.252535,5.83142492 105.665148,6.07209714 105.232186,6.50359329 C104.799223,6.93508945 104.556559,7.52165639 104.55812,8.13292 L104.55812,8.13292 Z" id="Shape"></path>
                </g>
                <g id="Group" transform="translate(9.000000, 7.000000)" fill="#000000">
                    <g id="_Group_3">
                        <path d="M15.99671,12.88935 C16.0194402,11.1251965 16.94431,9.4956559 18.44729,8.57164 C17.4948204,7.211346 15.9566895,6.37981052 14.2969,6.32788 C12.55066,6.14458 10.85777,7.3728 9.9679,7.3728 C9.06083,7.3728 7.69077,6.34608 6.21543,6.37643 C4.27427913,6.43914505 2.50846997,7.5160473 1.56406,9.21313 C-0.44705,12.69513 1.05306,17.81252 2.97957,20.62713 C3.94345,22.00536 5.06994,23.54487 6.54395,23.49028 C7.98635,23.43045 8.52506,22.57051 10.26615,22.57051 C11.99109,22.57051 12.4965,23.49028 14.00042,23.45557 C15.54819,23.43045 16.52334,22.07122 17.45342,20.67994 C18.1459669,19.6979035 18.6788802,18.6125388 19.03242,17.46405 C17.1941431,16.6865494 15.9988493,14.885287 15.99671,12.88935 Z" id="_Path_"></path>
                        <path d="M13.15611,4.47681 C14.000021,3.46373521 14.4157857,2.16159511 14.31511,0.84692 C13.0258135,0.982334929 11.8348645,1.59853425 10.97956,2.57274 C10.134985,3.53392609 9.70712564,4.79141544 9.79022,6.06824 C11.0967983,6.08168935 12.3373661,5.49513519 13.15611,4.47681 Z" id="_Path_2"></path>
                    </g>
                    <g id="Group" transform="translate(26.000000, 1.000000)">
                        <path d="M2.82619,0.731 C3.61513656,0.674384181 4.38789226,0.974547428 4.93176129,1.54887182 C5.47563032,2.12319621 5.73328587,2.91114479 5.63381,3.69584 C5.63381,5.60209 4.60354,6.69784 2.82619,6.69784 L0.67092,6.69784 L0.67092,0.731 L2.82619,0.731 Z M1.59767,5.854 L2.72267,5.854 C3.28649194,5.88770201 3.83548652,5.66555901 4.21721851,5.24925179 C4.5989505,4.83294457 4.77277961,4.26679442 4.69044,3.708 C4.76678901,3.15152453 4.59045658,2.59004622 4.20967108,2.17713398 C3.82888557,1.76422175 3.28349567,1.5430863 2.72267,1.57421 L1.59767,1.57421 L1.59767,5.854 Z" id="Shape"></path>
                        <path d="M6.68068,4.44434 C6.60346713,3.63722505 6.99048366,2.85611193 7.67941593,2.42859737 C8.36834819,2.0010828 9.24008181,2.0010828 9.92901407,2.42859737 C10.6179463,2.85611193 11.0049629,3.63722505 10.92775,4.44434 C11.0064319,5.25232226 10.6197687,6.03495038 9.93022554,6.4633853 C9.24068243,6.89182022 8.36774757,6.89182022 7.67820446,6.4633853 C6.98866134,6.03495038 6.60199806,5.25232226 6.68068,4.44434 Z M10.01369,4.44434 C10.01369,3.46827 9.5752,2.89747 8.80568,2.89747 C8.03322,2.89747 7.59868,3.46827 7.59868,4.44435 C7.59868,5.42824 8.03325,5.99464 8.80568,5.99464 C9.57521,5.99464 10.01369,5.42432 10.01369,4.44434 L10.01369,4.44434 Z" id="Shape"></path>
                        <polygon id="Path" points="16.57326 6.69775 15.65139 6.69775 14.72073 3.38134 14.65042 3.38134 13.72366 6.69775 12.81057 6.69775 11.56936 2.19482 12.47073 2.19482 13.27737 5.63082 13.34378 5.63082 14.26956 2.19482 15.1221 2.19482 16.04788 5.63082 16.11819 5.63082 16.92092 2.19482 17.80959 2.19482"></polygon>
                        <path d="M18.85353,2.19482 L19.709,2.19482 L19.709,2.91015 L19.77541,2.91015 C20.0063449,2.38347794 20.5459729,2.06130747 21.11916,2.1079 C21.5629768,2.07453177 21.9978859,2.2447899 22.3010908,2.57060207 C22.6042957,2.89641424 22.7428931,3.34242376 22.67775,3.7827 L22.67775,6.6977 L21.78908,6.6977 L21.78908,4.00586 C21.78908,3.28223 21.47463,2.92236 20.8174,2.92236 C20.5163658,2.90833912 20.2242202,3.02648257 20.0175546,3.24581678 C19.810889,3.465151 19.710315,3.76380101 19.7422,4.06347 L19.7422,6.69775 L18.85353,6.69775 L18.85353,2.19482 Z" id="Path"></path>
                        <polygon id="Path" points="24.09377 0.437 24.98244 0.437 24.98244 6.69774 24.09377 6.69774"></polygon>
                        <path d="M26.21779,4.44434 C26.1405771,3.63722505 26.5275937,2.85611193 27.2165259,2.42859737 C27.9054582,2.0010828 28.7771918,2.0010828 29.4661241,2.42859737 C30.1550563,2.85611193 30.5420729,3.63722505 30.46486,4.44434 C30.5435419,5.25232226 30.1568787,6.03495038 29.4673355,6.4633853 C28.7777924,6.89182022 27.9048576,6.89182022 27.2153145,6.4633853 C26.5257713,6.03495038 26.1391081,5.25232226 26.21779,4.44434 Z M29.5508,4.44434 C29.5508,3.46827 29.11231,2.89747 28.34279,2.89747 C27.57033,2.89747 27.13579,3.46827 27.13579,4.44435 C27.13579,5.42824 27.57036,5.99464 28.34279,5.99464 C29.11232,5.99464 29.5508,5.42432 29.5508,4.44434 L29.5508,4.44434 Z" id="Shape"></path>
                        <path d="M31.40041,5.42432 C31.40041,4.61377 32.00393,4.14649 33.07521,4.08008 L34.29494,4.00977 L34.29494,3.6211 C34.29494,3.14551 33.98049,2.87696 33.37307,2.87696 C32.87698,2.87696 32.53323,3.05909 32.43459,3.37745 L31.57424,3.37745 C31.66506,2.60401 32.3926,2.10792 33.41408,2.10792 C34.54299,2.10792 35.17971,2.66992 35.17971,3.6211 L35.17971,6.69776 L34.32424,6.69776 L34.32424,6.06495 L34.25393,6.06495 C33.9633786,6.52707633 33.4466836,6.79716323 32.90139,6.77195 C32.5191261,6.81171181 32.1378811,6.68791066 31.8519058,6.43115244 C31.5659305,6.17439423 31.4019161,5.80864331 31.40041,5.42432 L31.40041,5.42432 Z M34.29494,5.03955 L34.29494,4.66309 L33.19533,4.7334 C32.57521,4.7749 32.29396,4.98584 32.29396,5.38281 C32.29396,5.78808 32.64552,6.02392 33.12896,6.02392 C33.4151461,6.05288986 33.7008364,5.96447505 33.9206304,5.77891559 C34.1404244,5.59335613 34.2755016,5.32654106 34.29494,5.03955 L34.29494,5.03955 Z" id="Shape"></path>
                        <path d="M36.34768,4.44434 C36.34768,3.02149 37.07913,2.12012 38.21682,2.12012 C38.7912968,2.09365013 39.3293475,2.40147287 39.59768,2.91012 L39.66409,2.91012 L39.66409,0.437 L40.55276,0.437 L40.55276,6.69774 L39.7012,6.69774 L39.7012,5.98631 L39.63089,5.98631 C39.3422742,6.49073698 38.7975945,6.79335648 38.21683,6.77195 C37.07131,6.772 36.34768,5.87061 36.34768,4.44434 Z M37.26568,4.44434 C37.26568,5.39942 37.71588,5.97413 38.46881,5.97413 C39.21781,5.97413 39.68072,5.39113 39.68072,4.44825 C39.68072,3.50977 39.21295,2.91846 38.46881,2.91846 C37.72072,2.91846 37.26564,3.49707 37.26564,4.44434 L37.26568,4.44434 Z" id="Shape"></path>
                        <path d="M44.22951,4.44434 C44.1523564,3.63717225 44.539434,2.85603936 45.2284174,2.4285182 C45.9174008,2.00099704 46.7891792,2.00099704 47.4781626,2.4285182 C48.167146,2.85603936 48.5542236,3.63717225 48.47707,4.44434 C48.555652,5.25235119 48.1689179,6.03495719 47.4793405,6.46337324 C46.7897632,6.89178929 45.9168168,6.89178929 45.2272395,6.46337324 C44.5376621,6.03495719 44.150928,5.25235119 44.22951,4.44434 L44.22951,4.44434 Z M47.56252,4.44434 C47.56252,3.46827 47.12403,2.89747 46.35451,2.89747 C45.58205,2.89747 45.14751,3.46827 45.14751,4.44435 C45.14751,5.42824 45.58208,5.99464 46.35451,5.99464 C47.124,5.99464 47.56252,5.42432 47.56252,4.44434 L47.56252,4.44434 Z" id="Shape"></path>
                        <path d="M49.66945,2.19482 L50.52492,2.19482 L50.52492,2.91015 L50.59133,2.91015 C50.8222649,2.38347794 51.3618929,2.06130747 51.93508,2.1079 C52.3788968,2.07453177 52.8138059,2.2447899 53.1170108,2.57060207 C53.4202157,2.89641424 53.5588131,3.34242376 53.49367,3.7827 L53.49367,6.6977 L52.605,6.6977 L52.605,4.00586 C52.605,3.28223 52.29055,2.92236 51.63332,2.92236 C51.3322858,2.90833912 51.0401402,3.02648257 50.8334746,3.24581678 C50.626809,3.465151 50.526235,3.76380101 50.55812,4.06347 L50.55812,6.69775 L49.66945,6.69775 L49.66945,2.19482 Z" id="Path"></path>
                        <path d="M58.51516,1.07373 L58.51516,2.21533 L59.49075,2.21533 L59.49075,2.96387 L58.51516,2.96387 L58.51516,5.2793 C58.51516,5.75098 58.7095,5.95752 59.15188,5.95752 C59.2651356,5.95715754 59.3782775,5.95030966 59.49075,5.93701 L59.49075,6.67724 C59.3311595,6.70579072 59.1694656,6.72098004 59.00735,6.72265 C58.01907,6.72265 57.62551,6.37499 57.62551,5.50683 L57.62551,2.96383 L56.91067,2.96383 L56.91067,2.21529 L57.62551,2.21529 L57.62551,1.07373 L58.51516,1.07373 Z" id="Path"></path>
                        <path d="M60.70461,0.437 L61.58547,0.437 L61.58547,2.91845 L61.65578,2.91845 C61.8978078,2.38716856 62.4468801,2.06458754 63.02878,2.11181 C63.4700766,2.08779728 63.8990983,2.26180371 64.1989893,2.58643385 C64.4988802,2.91106399 64.6384049,3.35250564 64.57956,3.79052 L64.57956,6.69775 L63.69,6.69775 L63.69,4.00975 C63.69,3.29051 63.355,2.92625 62.72711,2.92625 C62.417939,2.90089367 62.1133391,3.01329096 61.8947423,3.2333935 C61.6761456,3.45349605 61.5658419,3.75886031 61.59332,4.06785 L61.59332,6.69775 L60.70465,6.69775 L60.70461,0.437 Z" id="Path"></path>
                        <path d="M69.76125,5.48193 C69.512057,6.33130948 68.6900989,6.88010304 67.81008,6.78466 C67.2096439,6.8005102 66.6325914,6.5516307 66.2320282,6.10405516 C65.8314651,5.65647963 65.6478864,5.05545594 65.73,4.46045 C65.6500674,3.86379048 65.8329582,3.26180373 66.2312908,2.81044696 C66.6296234,2.35909018 67.204202,2.10277675 67.80617,2.10791 C69.0591,2.10791 69.81496,2.96391 69.81496,4.37791 L69.81496,4.688 L66.63527,4.688 L66.63527,4.7378 C66.607132,5.07194014 66.7212507,5.40244775 66.9495608,5.6480407 C67.1778709,5.89363365 67.4991879,6.03152392 67.83449,6.0278 C68.2692619,6.07999468 68.6924825,5.86433304 68.90578,5.4819 L69.76125,5.48193 Z M66.63525,4.03076 L68.90966,4.03076 C68.9323129,3.72516044 68.8248585,3.42420507 68.6137769,3.20205909 C68.4026954,2.97991311 68.1076175,2.85723623 67.80126,2.86426 C67.490752,2.86035891 67.191828,2.98202124 66.9722963,3.20164888 C66.7527647,3.42127653 66.6312331,3.72025374 66.63527,4.03076 L66.63525,4.03076 Z" id="Shape"></path>
                    </g>
                </g>
            </g>
        </g>
    </g>
</svg>