<?xml version="1.0" encoding="UTF-8"?>
<svg width="512px" height="512px" viewBox="0 0 512 512" version="1.1" xmlns="http://www.w3.org/2000/svg" xmlns:xlink="http://www.w3.org/1999/xlink">
    <title>contact</title>
    <defs>
        <path d="M13,256 L332,256 C339.179702,256 345,250.179702 345,243 L345,13 C345,5.82029825 339.179702,-1.31888981e-15 332,0 L13,0 C5.82029825,1.31888981e-15 -8.79259876e-16,5.82029825 0,13 L0,243 C8.79259876e-16,250.179702 5.82029825,256 13,256 Z" id="path-1"></path>
        <filter x="-6.2%" y="-5.7%" width="112.5%" height="116.8%" filterUnits="objectBoundingBox" id="filter-3">
            <feMorphology radius="1" operator="dilate" in="SourceAlpha" result="shadowSpreadOuter1"></feMorphology>
            <feOffset dx="0" dy="7" in="shadowSpreadOuter1" result="shadowOffsetOuter1"></feOffset>
            <feGaussianBlur stdDeviation="5" in="shadowOffsetOuter1" result="shadowBlurOuter1"></feGaussianBlur>
            <feColorMatrix values="0 0 0 0 0   0 0 0 0 0   0 0 0 0 0  0 0 0 0.245574738 0" type="matrix" in="shadowBlurOuter1"></feColorMatrix>
        </filter>
        <linearGradient x1="51.1145656%" y1="0%" x2="50%" y2="100.654521%" id="linearGradient-4">
            <stop stop-color="#0F408C" offset="0%"></stop>
            <stop stop-color="#0C3574" offset="45.3632955%"></stop>
            <stop stop-color="#14315D" offset="100%"></stop>
            <stop stop-color="#E8EDF4" offset="100%"></stop>
            <stop stop-color="#072046" offset="100%"></stop>
        </linearGradient>
        <linearGradient x1="1.85958688%" y1="76.9961845%" x2="81.9889156%" y2="30.0636993%" id="linearGradient-5">
            <stop stop-color="#000000" stop-opacity="0.04" offset="0%"></stop>
            <stop stop-color="#000000" stop-opacity="0.06" offset="100%"></stop>
        </linearGradient>
        <linearGradient x1="73.9130435%" y1="-212.970851%" x2="73.9130435%" y2="138.890329%" id="linearGradient-6">
            <stop stop-color="#000000" offset="0%"></stop>
            <stop stop-color="#000000" stop-opacity="0" offset="100%"></stop>
        </linearGradient>
        <linearGradient x1="50%" y1="1.50335147%" x2="50%" y2="97.0025796%" id="linearGradient-7">
            <stop stop-color="#E5E5E5" offset="0%"></stop>
            <stop stop-color="#FAFAFA" offset="86.3529771%"></stop>
            <stop stop-color="#FEFEFE" offset="99.9207823%"></stop>
        </linearGradient>
    </defs>
    <g id="Document-Legacy" stroke="none" stroke-width="1" fill="none" fill-rule="evenodd">
        <g id="Group" transform="translate(84.000000, 128.000000)">
            <mask id="mask-2" fill="white">
                <use xlink:href="#path-1"></use>
            </mask>
            <g id="path2820" fill-rule="nonzero" fill="black" fill-opacity="1">
                <use filter="url(#filter-3)" xlink:href="#path-1"></use>
            </g>
            <g mask="url(#mask-2)" id="Icon-Background-Fill-Artwork">
                <g transform="translate(0.000000, -1.000000)">
                    <rect id="Fill" fill="url(#linearGradient-4)" x="0" y="0" width="365" height="365"></rect>
                </g>
            </g>
            <g mask="url(#mask-2)" id="Icon-Center-Image-Artwork">
                <g transform="translate(221.000000, 134.000000)">
                    <g id="Group" transform="translate(0.000000, 54.863281)" fill="#FFFFFF" fill-rule="nonzero">
                        <g id="m-de-maqueteer">
                            <path d="M89.442189,0 C91.331669,0 93.270872,0.210594439 95.2597983,0.631783318 C97.2487245,1.0529722 99.0387581,1.7495538 100.629899,2.72152814 C102.22104,3.69350247 103.513842,4.94086954 104.508305,6.46362933 C105.484687,7.95870258 105.981754,9.78170872 106,11.9326478 L106,45.8796729 C106,48.6950777 103.719745,50.9774143 100.906907,50.9774143 L95.8778073,50.9774143 C93.0649697,50.9774143 90.7847142,48.6950777 90.7847142,45.8796729 L90.7847142,16.8611152 C90.7847142,15.0467631 90.1383132,13.6212007 88.8455111,12.5844281 C87.5527091,11.5476555 85.7129523,11.0292692 83.3262408,11.0292692 C83.1783463,11.0292692 83.0328055,11.0308028 82.8896186,11.0338702 L82.6766034,11.0396215 C80.1416051,11.1224407 78.3692246,11.7021745 77.3594621,12.778823 C76.4738929,13.7230516 75.9467779,15.0070116 75.778117,16.6307031 L75.7780939,46.0389773 C75.7780877,48.8543806 73.4978329,51.1367188 70.6849968,51.1367188 L65.2386343,51.1367188 C62.4257967,51.1367188 60.1455412,48.8543822 60.1455412,46.0389773 L60.1459256,45.9763507 L60.1459256,45.9763507 L60.5033122,16.8611152 C60.5033122,16.1175282 60.394739,15.4392446 60.1775928,14.8262643 L60.1542217,14.7677169 C59.8331926,13.979271 59.3229858,13.3046095 58.623601,12.7437325 C57.330799,11.7069599 55.4910422,11.1885736 53.1043307,11.1885736 C52.9564362,11.1885736 52.8108954,11.1901073 52.6677084,11.1931746 L52.4546933,11.198926 C49.919695,11.2817451 48.1473145,11.8614789 47.137552,12.9381274 C46.0615755,14.0853758 45.5147678,15.7341535 45.4971288,17.8844606 L45.4966878,17.9923939 L45.4966878,46.0389773 C45.4966878,48.8543822 43.2164324,51.1367188 40.4035947,51.1367188 L35.3648633,51.1367188 C32.55579,51.1367188 30.2770968,48.8602592 30.2717793,46.0486271 L30.2219101,19.6798407 L30.2813118,19.6293313 L30.2814021,17.0204196 L30.2808809,16.9315026 C30.2600349,15.1594322 29.6138076,13.7635089 28.342199,12.7437325 C27.0493969,11.7069599 25.2096401,11.1885736 22.8229286,11.1885736 C22.6750341,11.1885736 22.5294934,11.1901073 22.3863064,11.1931746 L22.1732912,11.198926 C19.6382929,11.2817451 17.8659125,11.8614789 16.8561499,12.9381274 C15.7801734,14.0853758 15.2333657,15.7341535 15.2157267,17.8844606 L15.2152858,17.9923939 L15.2152858,46.0389773 C15.2152858,48.8543822 12.9350303,51.1367188 10.1221927,51.1367188 L5.09309309,51.1367188 C2.28025545,51.1367188 0,48.8543822 0,46.0389773 L0,5.84023045 C0,3.0248256 2.28025545,0.742489021 5.09309309,0.742489021 L10.4569543,0.742489021 C13.0586287,0.742489021 15.1726285,2.83237771 15.2146483,5.42640374 L15.2152858,5.50516326 L15.5136247,5.50516326 L15.6226124,5.39955644 C17.1919482,3.89197538 19.0699604,2.64741145 21.2566492,1.66586464 C23.4941913,0.66149116 26.3532727,0.15930442 29.8338937,0.15930442 C33.115622,0.15930442 35.8503955,0.677690732 38.0382144,1.71446336 C40.2260333,2.75123598 42.0160669,3.88520604 43.4083153,5.11637353 C45.2977952,3.75560946 47.3861678,2.58924026 49.6734329,1.61726592 C51.2927276,0.929145971 53.3606125,0.484607074 55.8770877,0.283649233 C57.1529404,0.0945054041 58.545889,0 60.0558038,0 C63.3375321,0 66.0723057,0.518386312 68.2601245,1.55515894 C70.4479434,2.59193156 72.237977,3.72590162 73.6302254,4.95706911 C75.5197053,3.59630504 77.6080779,2.42993584 79.8953431,1.4579615 C81.0847209,0.952534848 82.5161114,0.578519124 84.1895144,0.33591433 L84.4488704,0.299627288 L84.5799804,0.282261347 L84.5799804,0.282261347 L84.8450645,0.249084623 C84.9785612,0.233014647 85.1134899,0.217722251 85.2498507,0.203207434 L85.5244817,0.175214573 L85.6632292,0.161995723 L85.6632292,0.161995723 L85.9435882,0.13711318 C86.2729013,0.109293114 86.6100111,0.0857065369 86.9549174,0.0663534479 L87.2524608,0.0508018586 L87.4026645,0.0438036434 L87.4026645,0.0438036434 L87.705936,0.0313623719 C87.8076629,0.0275608723 87.9100263,0.0241049635 88.0130262,0.0209946456 L88.3239351,0.0127004646 C88.4282079,0.0102813285 88.5331171,0.00820778327 88.6386628,0.0064798289 L88.9572092,0.0023327384 C89.1174371,0.000777579468 89.2790971,0 89.442189,0 Z" id="Path"></path>
                        </g>
                    </g>
                </g>
            </g>
            <path d="M0,256 L344.00289,256 L345,0 L13,0 C5.82029825,1.31888981e-15 -8.79259876e-16,5.82029825 0,13 L0,256 L0,256 Z" id="path2820" fill="url(#linearGradient-5)" fill-rule="nonzero" mask="url(#mask-2)"></path>
            <path d="M181.310916,165.999618 L344,0 L344,0 L345,0 L172.5,139.5 L0,-1 L162.716105,165.973212 C167.726948,171.115153 175.957407,171.221429 181.099348,166.210585 C181.170677,166.141076 181.241204,166.070749 181.310916,165.999618 Z" id="path3612" fill="url(#linearGradient-6)" fill-rule="nonzero" mask="url(#mask-2)"></path>
            <path d="M0,-2.5 L162.934855,143.808849 C167.824248,148.199325 175.221202,148.250651 180.171051,143.928448 L345,0 L345,0 L0,-2.5 Z" id="path2822" fill="url(#linearGradient-7)" fill-rule="nonzero" mask="url(#mask-2)"></path>
        </g>
    </g>
</svg>