<?xml version="1.0" encoding="UTF-8"?>
<svg width="2628px" height="560px" viewBox="0 0 2628 560" version="1.1" xmlns="http://www.w3.org/2000/svg" xmlns:xlink="http://www.w3.org/1999/xlink">
    <title>default.top.dark</title>
    <defs>
        <linearGradient x1="50%" y1="0%" x2="50%" y2="100%" id="linearGradient-1">
            <stop stop-color="#B7B7B7" stop-opacity="0.49000001" offset="0%"></stop>
            <stop stop-color="#808080" stop-opacity="0" offset="100%"></stop>
        </linearGradient>
        <linearGradient x1="50%" y1="54.4203415%" x2="50%" y2="125.262728%" id="linearGradient-2">
            <stop stop-color="#767676" offset="0%"></stop>
            <stop stop-color="#767676" stop-opacity="0" offset="100%"></stop>
        </linearGradient>
        <linearGradient x1="49.4906332%" y1="69.0377154%" x2="49.4906332%" y2="115.885254%" id="linearGradient-3">
            <stop stop-color="#767676" offset="0%"></stop>
            <stop stop-color="#767676" stop-opacity="0" offset="100%"></stop>
        </linearGradient>
    </defs>
    <g id="Page-1" stroke="none" stroke-width="1" fill="none" fill-rule="evenodd">
        <g id="default.top.dark" transform="translate(0.000000, -815.000000)" fill-rule="nonzero">
            <rect id="Rectangle" fill="url(#linearGradient-1)" x="0" y="815" width="2628" height="560"></rect>
            <path d="M633.188,1157.619 C696.807,1117.924 698.679,1027.777 733.546,961.389 C771.024,890.03 857.249,832.557 845.817,752.77 C834.385,672.987 737.211,640.337 679.485,584.089 C627.523,533.458 588.913,470.061 523.492,438.699 C450.888,403.893 365.232,367.78 290.436,397.585 C215.873,427.297 192.312,518.985 150.331,587.396 C115.274,644.525 79.459,699.515 64.994,764.964 C49.648,834.399 35.532,909.208 64.89,973.976 C94.274,1038.801 159.559,1078.107 222.228,1111.847 C281.273,1143.635 346.354,1153.968 413,1161.391 C487.464,1169.685 569.622,1197.28 633.188,1157.619 Z" id="Path" fill="url(#linearGradient-2)"></path>
            <path d="M2363.5,1095 C2476,1029 2498.266,938.579 2532.047,813.725 C2562.95,699.509 2510.226,585.247 2503.68,467.105 C2496.321,334.288 2577.443,177.59 2491.19,76.323 C2405.077,-24.781 2240.542,9.047 2107.901,2.428 C2002.31,-2.841 1896.629,-0.317 1799.664,41.814 C1709.956,80.792 1643.012,153.474 1582.824,230.573 C1525.214,304.37 1493.913,389.559 1460.056,476.844 C1416.162,590.005 1260.5,673 1314,789.5 C1367.5,906 1456,846.5 1498,911.5 C1540,976.5 1527,1003 1512.5,1061.5 C1498,1120 1555.53537,1169.84283 1576,1176.5 C1627.71366,1193.32252 1681.19663,1185.86421 1726,1152.5 C1796.5,1100 1863.5,998.5 1985,998.5 C2113.58369,998.5 2251,1161 2363.5,1095 Z" id="Path" fill="url(#linearGradient-3)"></path>
        </g>
    </g>
</svg>