<?xml version="1.0" encoding="UTF-8"?>
<svg width="2628px" height="561px" viewBox="0 0 2628 561" version="1.1" xmlns="http://www.w3.org/2000/svg" xmlns:xlink="http://www.w3.org/1999/xlink">
    <title>default.top.mono</title>
    <defs>
        <linearGradient x1="49.4906332%" y1="53.4700824%" x2="50%" y2="102.652853%" id="linearGradient-1">
            <stop stop-color="#A29E9E" stop-opacity="0.705392264" offset="0%"></stop>
            <stop stop-color="#E4E2E2" stop-opacity="0" offset="100%"></stop>
        </linearGradient>
        <linearGradient x1="49.4906332%" y1="67.4145399%" x2="50%" y2="98.9705409%" id="linearGradient-2">
            <stop stop-color="#A29E9E" stop-opacity="0.705392264" offset="0%"></stop>
            <stop stop-color="#E4E2E2" stop-opacity="0" offset="100%"></stop>
        </linearGradient>
    </defs>
    <g id="Page-1" stroke="none" stroke-width="1" fill="none" fill-rule="evenodd">
        <g id="default.top.white" transform="translate(-236.000000, -814.000000)" fill-rule="nonzero">
            <g id="Group-2" transform="translate(236.000000, 0.416220)">
                <rect id="Rectangle" x="0" y="814.58378" width="2628" height="560"></rect>
                <path d="M633.188,1157.20278 C696.807,1117.50778 698.679,1027.36078 733.546,960.97278 C771.024,889.61378 857.249,832.14078 845.817,752.35378 C834.385,672.57078 737.211,639.92078 679.485,583.67278 C627.523,533.04178 588.913,469.64478 523.492,438.28278 C450.888,403.47678 365.232,367.36378 290.436,397.16878 C215.873,426.88078 192.312,518.56878 150.331,586.97978 C115.274,644.10878 79.459,699.09878 64.994,764.54778 C49.648,833.98278 35.532,908.79178 64.89,973.55978 C94.274,1038.38478 159.559,1077.69078 222.228,1111.43078 C281.273,1143.21878 346.354,1153.55178 413,1160.97478 C487.464,1169.26878 569.622,1196.86378 633.188,1157.20278 Z" id="Path" fill="url(#linearGradient-1)"></path>
                <path d="M2363.5,1094.58378 C2476,1028.58378 2498.266,938.16278 2532.047,813.30878 C2562.95,699.09278 2510.226,584.83078 2503.68,466.68878 C2496.321,333.87178 2577.443,177.17378 2491.19,75.90678 C2405.077,-25.19722 2240.542,8.63078004 2107.901,2.01178004 C2002.31,-3.25721996 1896.629,-0.733219959 1799.664,41.39778 C1709.956,80.37578 1643.012,153.05778 1582.824,230.15678 C1525.214,303.95378 1493.913,389.14278 1460.056,476.42778 C1416.162,589.58878 1260.5,672.58378 1314,789.08378 C1367.5,905.58378 1456,846.08378 1498,911.08378 C1540,976.08378 1527,1002.58378 1512.5,1061.08378 C1498,1119.58378 1555.53537,1169.42661 1576,1176.08378 C1627.71366,1192.9063 1681.19663,1185.44799 1726,1152.08378 C1796.5,1099.58378 1863.5,998.08378 1985,998.08378 C2113.58369,998.08378 2251,1160.58378 2363.5,1094.58378 Z" id="Path" fill="url(#linearGradient-2)"></path>
            </g>
        </g>
    </g>
</svg>