<?xml version="1.0" encoding="UTF-8"?>
<svg width="512px" height="512px" viewBox="0 0 512 512" version="1.1" xmlns="http://www.w3.org/2000/svg" xmlns:xlink="http://www.w3.org/1999/xlink">
    <title>lifesaver</title>
    <defs>
        <linearGradient x1="47.2222222%" y1="99.9944446%" x2="47.2222222%" y2="-0.00341968005%" id="linearGradient-1">
            <stop stop-color="#787878" offset="0%"></stop>
            <stop stop-color="#F0F0F0" offset="100%"></stop>
        </linearGradient>
        <filter x="-8.2%" y="-7.9%" width="116.3%" height="115.8%" filterUnits="objectBoundingBox" id="filter-2">
            <feGaussianBlur stdDeviation="10" in="SourceGraphic"></feGaussianBlur>
        </filter>
        <radialGradient cx="50.0021066%" cy="44.7362178%" fx="50.0021066%" fy="44.7362178%" r="55.265%" gradientTransform="translate(0.500021,0.447362),scale(1.000000,0.970976),rotate(-0.000001),translate(-0.500021,-0.447362)" id="radialGradient-3">
            <stop stop-color="#8C8C8C" offset="0%"></stop>
            <stop stop-color="#9CBDCC" offset="42.857%"></stop>
            <stop stop-color="#8C8C8C" offset="52.381%"></stop>
            <stop stop-color="#FFFFFF" offset="71.429%"></stop>
            <stop stop-color="#8C8C8C" offset="89.474%"></stop>
            <stop stop-color="#9CBDCC" offset="100%"></stop>
        </radialGradient>
        <radialGradient cx="50.0018468%" cy="44.7359952%" fx="50.0018468%" fy="44.7359952%" r="55.2667804%" gradientTransform="translate(0.500018,0.447360),scale(1.000000,0.970976),rotate(-0.000003),translate(-0.500018,-0.447360)" id="radialGradient-4">
            <stop stop-color="#A00000" offset="0%"></stop>
            <stop stop-color="#B40016" offset="42.857%"></stop>
            <stop stop-color="#780000" offset="52.381%"></stop>
            <stop stop-color="#FF0101" offset="61.905%"></stop>
            <stop stop-color="#FF4F01" offset="71.429%"></stop>
            <stop stop-color="#FF0101" offset="80.952%"></stop>
            <stop stop-color="#780000" offset="90.476%"></stop>
            <stop stop-color="#B40016" offset="100%"></stop>
        </radialGradient>
    </defs>
    <g id="Document-Legacy" stroke="none" stroke-width="1" fill="none" fill-rule="evenodd">
        <g id="Lifesaver" fill-rule="nonzero">
            <g id="lifesaver" transform="translate(78.000000, 58.000000)">
                <path d="M86.342,14.0076887 C44.4292667,15.0976654 11,50.3769119 11,94.0059801 L11,294.001709 C11,338.320762 45.4906667,374 88.3333333,374 L281.666667,374 C324.509333,374 359,338.320762 359,294.001709 L359,94.0059801 C359,49.6869267 324.509333,14.0076887 281.666667,14.0076887 L88.3333333,14.0076887 C87.6639167,14.0076887 87.0048433,13.9903891 86.3395833,14.0076887 L86.342,14.0076887 Z M91.02434,19.0387813 L278.983007,19.0387813 C320.630873,19.0387813 354.171307,53.7040409 354.171307,96.7871207 L354.171307,291.222968 C354.171307,334.306048 320.630873,369.002307 278.983007,369.002307 L91.02434,369.002307 C49.37744,369.002307 15.8370067,334.303048 15.8370067,291.213968 L15.8370067,96.7781209 C15.8370067,53.6950411 49.37744,19.0297815 91.0253067,19.0297815 L91.02434,19.0387813 Z" id="path4265" fill="#000000" opacity="0.8"></path>
                <path d="M86.342,10.0076887 C44.4292667,11.0976654 11,46.3769119 11,90.0059801 L11,290.001709 C11,334.320762 45.4906667,370 88.3333333,370 L281.666667,370 C324.509333,370 359,334.320762 359,290.001709 L359,90.0059801 C359,45.6869267 324.509333,10.0076887 281.666667,10.0076887 L88.3333333,10.0076887 C87.6639167,10.0076887 87.0048433,9.99038909 86.3395833,10.0076887 L86.342,10.0076887 Z M91.02434,15.0387813 L278.983007,15.0387813 C320.630873,15.0387813 354.171307,49.7040409 354.171307,92.7871207 L354.171307,287.222968 C354.171307,330.306048 320.630873,365.002307 278.983007,365.002307 L91.02434,365.002307 C49.37744,365.002307 15.8370067,330.303048 15.8370067,287.213968 L15.8370067,92.7781209 C15.8370067,49.6950411 49.37744,15.0297815 91.0253067,15.0297815 L91.02434,15.0387813 Z" id="rect4218" stroke="#B4B4B4" stroke-width="2" fill="url(#linearGradient-1)" stroke-linecap="round" stroke-linejoin="round"></path>
                <path d="M184,17 C82.3835789,17 0,101.842142 0,206.5 C0,311.157858 82.3797053,396 184,396 C285.620295,396 368,311.157858 368,206.5 C368,101.842142 285.620295,17 184,17 Z M184,96.7894737 C242.832547,96.7894737 290.526316,145.908871 290.526316,206.5 C290.526316,267.091129 242.832547,316.210526 184,316.210526 C125.167453,316.210526 77.4736842,267.091129 77.4736842,206.5 C77.4736842,145.908871 125.167453,96.7894737 184,96.7894737 Z" id="path4251" fill-opacity="0.51" fill="#000000" opacity="0.6" filter="url(#filter-2)"></path>
                <path d="M184,0 C82.3835789,0 0,84.8421421 0,189.5 C0,294.157858 82.3797053,379 184,379 C285.620295,379 368,294.157858 368,189.5 C368,84.8421421 285.620295,0 184,0 Z M184,79.7894737 C242.832547,79.7894737 290.526316,128.908871 290.526316,189.5 C290.526316,250.091129 242.832547,299.210526 184,299.210526 C125.167453,299.210526 77.4736842,250.091129 77.4736842,189.5 C77.4736842,128.908871 125.167453,79.7894737 184,79.7894737 Z" id="path2987" stroke="#A0A0A0" stroke-width="3" fill="url(#radialGradient-3)"></path>
                <path d="M183.999032,0 C163.660146,0 144.094064,3.38660012 125.802431,9.66260697 L150.313296,85.3935884 C160.900131,81.762032 172.223938,79.7833319 183.996126,79.7833319 C195.768315,79.7833319 207.092122,81.762032 217.678956,85.3935884 L242.191759,9.65462794 C223.907873,3.38111454 204.335981,0 183.999032,0 L183.999032,0 Z M9.38211254,129.56002 C3.28780678,148.400508 0,168.547562 0,189.502493 C0,210.449446 3.28780678,230.600489 9.38162832,249.438982 L82.9219733,224.193327 C79.3872178,213.282002 77.4697341,201.622642 77.4697341,189.504488 C77.4697341,177.38035 79.3909947,165.717998 82.9171311,154.814652 L9.37678619,129.568997 L9.38211254,129.56002 Z M358.615951,129.56002 L285.075606,154.805676 C288.601742,165.709022 290.523003,177.371374 290.523003,189.495512 C290.523003,201.61965 288.601742,213.282002 285.075606,224.185348 L358.615951,249.431003 C364.707351,230.600489 368,210.453435 368,189.508478 C368,168.561526 364.712193,148.410482 358.618372,129.571989 L358.615951,129.56002 Z M150.31717,293.598931 L125.804367,369.337892 C144.096001,375.613899 163.662082,379 184.000968,379 C204.339854,379 223.905936,375.613899 242.197569,369.337892 L217.677019,293.596937 C207.090185,297.228493 195.766378,299.207193 183.994189,299.207193 C172.222001,299.207193 160.898194,297.228493 150.31136,293.596937 L150.31717,293.598931 Z" id="path3772" stroke="#C80000" stroke-width="3" fill="url(#radialGradient-4)" stroke-linecap="round" stroke-linejoin="round"></path>
            </g>
        </g>
    </g>
</svg>