<?xml version="1.0" encoding="UTF-8"?>
<svg width="1024px" height="1024px" viewBox="0 0 1024 1024" version="1.1" xmlns="http://www.w3.org/2000/svg" xmlns:xlink="http://www.w3.org/1999/xlink">
    <title>vectorIcon</title>
    <defs>
        <linearGradient x1="51.1145656%" y1="0%" x2="50%" y2="100.654521%" id="linearGradient-1">
            <stop stop-color="#0F408C" offset="0%"></stop>
            <stop stop-color="#0C3574" offset="45.3632955%"></stop>
            <stop stop-color="#14315D" offset="100%"></stop>
            <stop stop-color="#E8EDF4" offset="100%"></stop>
            <stop stop-color="#072046" offset="100%"></stop>
        </linearGradient>
        <path d="M923.943901,327.279173 C923.894902,319.038203 923.799902,310.799233 923.575904,302.562263 C923.091908,284.609328 922.032915,266.502394 918.839939,248.749458 C915.601963,230.740524 910.314002,213.979585 901.981064,197.616645 C893.789124,181.533703 883.088204,166.816757 870.320298,154.057803 C857.555393,141.29885 842.834502,130.604889 826.745621,122.417918 C810.365742,114.082949 793.586866,108.796968 775.558,105.55998 C757.803131,102.371991 739.691265,101.314995 721.738398,100.829997 C713.495459,100.606998 705.25252,100.512998 697.007581,100.461998 C687.219653,100.401999 677.431726,100.406999 667.643798,100.406999 L553.99664,100 L468.997269,100 L357.361095,100.406999 C347.554168,100.406999 337.74724,100.401999 327.940313,100.461998 C319.678374,100.512998 311.420435,100.606998 303.161496,100.829997 C285.166629,101.314995 267.013764,102.372991 249.216896,105.56498 C231.164029,108.800968 214.360154,114.084949 197.958275,122.413918 C181.835394,130.601889 167.082503,141.29685 154.290598,154.057803 C141.500693,166.815757 130.779772,181.529703 122.572833,197.609645 C114.216895,213.980585 108.918934,230.751524 105.672958,248.770458 C102.476982,266.516394 101.41799,284.617328 100.930993,302.562263 C100.708995,310.800233 100.612995,319.039203 100.562996,327.279173 C100.502996,337.063137 100,349.216093 100,358.999057 L100,469.088656 L100,554.998343 L100.507996,667.426934 C100.507996,677.222898 100.503996,687.018863 100.562996,696.814827 C100.612995,705.066797 100.708995,713.316767 100.931993,721.565737 C101.41799,739.541672 102.478982,757.674606 105.677958,775.451541 C108.922934,793.484475 114.219895,810.269414 122.568833,826.653354 C130.776772,842.759296 141.499693,857.495242 154.290598,870.272196 C167.081503,883.049149 181.830394,893.75711 197.950275,901.95608 C214.362153,910.30205 231.174029,915.595031 249.237895,918.836019 C267.026764,922.029007 285.173629,923.088003 303.161496,923.573002 C311.420435,923.796001 319.679374,923.891 327.941313,923.941 C337.74824,924 347.554168,924 357.361095,924 L470.006261,924 L555.216631,924 L667.643798,924 C677.431726,924 687.219653,924 697.007581,923.941 C705.25252,923.891 713.495459,923.796001 721.738398,923.573002 C739.698265,923.087003 757.816131,922.027007 775.578999,918.832019 C793.596866,915.591031 810.367742,910.30005 826.738621,901.95908 C842.830502,893.76111 857.554393,883.051149 870.320298,870.272196 C883.086204,857.497242 893.786124,842.763296 901.978064,826.660354 C910.316002,810.268414 915.603963,793.475475 918.843939,775.430541 C922.033915,757.660606 923.091908,739.534672 923.576904,721.565737 C923.799902,713.315767 923.894902,705.065797 923.943901,696.814827 C924,687.018863 924,677.222898 924,667.426934 C924,667.426934 924,556.983336 924,554.998343 L924,468.998657 C924,467.532662 924,356.627066 924,356.627066 C924,346.845101 924,337.062137 923.943901,327.279173 Z" id="path-2"></path>
        <filter x="-3.2%" y="-1.6%" width="106.3%" height="106.3%" filterUnits="objectBoundingBox" id="filter-3">
            <feOffset dx="0" dy="13" in="SourceAlpha" result="shadowOffsetOuter1"></feOffset>
            <feGaussianBlur stdDeviation="6.5" in="shadowOffsetOuter1" result="shadowBlurOuter1"></feGaussianBlur>
            <feColorMatrix values="0 0 0 0 0   0 0 0 0 0   0 0 0 0 0  0 0 0 0.25 0" type="matrix" in="shadowBlurOuter1"></feColorMatrix>
        </filter>
    </defs>
    <g id="App-Iconos-MacOs" stroke="none" stroke-width="1" fill="none" fill-rule="evenodd">
        <g id="All-Icons" transform="translate(-790.000000, -50.000000)">
            <g id="Icon-Artwork" transform="translate(50.000000, 50.000000)">
                <g id="Group" transform="translate(740.000000, 0.000000)">
                    <g id="borde">
                        <use fill="black" fill-opacity="1" filter="url(#filter-3)" xlink:href="#path-2"></use>
                        <use fill="url(#linearGradient-1)" fill-rule="evenodd" xlink:href="#path-2"></use>
                    </g>
                    <g transform="translate(195.000000, 359.000000)" fill="#FFFFFF" fill-rule="nonzero" id="m-de-maqueteer">
                        <g>
                            <path d="M535.80934,0 C547.128394,0 558.745318,1.26018837 570.660112,3.78056512 C582.574906,6.30094187 593.298221,10.4692573 602.830056,16.2855113 C612.361891,22.1017653 620.106507,29.565958 626.063904,38.6780893 C631.912985,47.6245455 634.890699,58.5333385 635,71.4044683 L635,274.542056 C635,291.389322 621.339979,305.046729 604.489489,305.046729 L574.362336,305.046729 C557.511847,305.046729 543.851826,291.389322 543.851826,274.542056 L543.851826,100.896212 C543.851826,90.039205 539.979518,81.5086991 532.234902,75.3046948 C524.490286,69.1006905 513.469101,65.9986883 499.171348,65.9986883 C498.285376,65.9986883 497.413505,66.0078658 496.555734,66.0262209 L495.279652,66.0606366 C480.093578,66.5562227 469.476016,70.0253257 463.426966,76.4679456 C458.121906,82.1181703 454.964189,89.8013339 453.953814,99.5174363 L453.953676,275.495327 C453.953638,292.342583 440.293621,306 423.443141,306 L390.816347,306 C373.965857,306 360.305837,292.342593 360.305837,275.495327 L360.308139,275.120572 L360.308139,275.120572 L362.449087,100.896212 C362.449087,96.4466192 361.798673,92.3877982 360.497843,88.7197495 L360.357838,88.3694043 C358.434692,83.6513766 355.378264,79.6142304 351.188553,76.2579658 C343.443937,70.0539615 332.422753,66.9519593 318.125,66.9519593 C317.239028,66.9519593 316.367157,66.9611369 315.509385,66.9794919 L314.233304,67.0139076 C299.047229,67.5094937 288.429667,70.9785967 282.380618,77.4212166 C275.93491,84.2863033 272.659222,94.1525209 272.553555,107.019869 L272.550913,107.665738 L272.550913,275.495327 C272.550913,292.342593 258.890892,306 242.040402,306 L211.855549,306 C195.02761,306 181.376948,292.37776 181.345093,275.553071 L181.046348,117.763349 L181.402198,117.461103 L181.402739,101.849484 L181.399617,101.317408 C181.274737,90.7134125 177.40347,82.3602651 169.785815,76.2579658 C162.041199,70.0539615 151.020014,66.9519593 136.722261,66.9519593 C135.836289,66.9519593 134.964418,66.9611369 134.106647,66.9794919 L132.830565,67.0139076 C117.64449,67.5094937 107.026928,70.9785967 100.977879,77.4212166 C94.532171,84.2863033 91.2564832,94.1525209 91.1508158,107.019869 L91.1481742,107.665738 L91.1481742,275.495327 C91.1481742,292.342593 77.4881533,306 60.6376636,306 L30.5105105,306 C13.6600208,306 0,292.342593 0,275.495327 L0,34.9476963 C0,18.1004307 13.6600208,4.44302345 30.5105105,4.44302345 L62.6430755,4.44302345 C78.2285775,4.44302345 90.8926327,16.9488305 91.1443553,32.4713745 L91.1481742,32.9426682 L92.9353933,32.9426682 L93.5882914,32.3107214 C102.989501,23.289419 114.239857,15.8420001 127.339361,9.96846478 C140.743504,3.95833561 157.871021,0.953271028 178.72191,0.953271028 C198.38132,0.953271028 214.764162,4.05527318 227.870435,10.2592775 C240.976709,16.4632818 251.700023,23.2489115 260.040379,30.6161666 C271.359434,22.4734109 283.869967,15.4939061 297.57198,9.67765207 C307.272472,5.55997088 319.660273,2.8998686 334.735384,1.69734522 C342.378464,0.565516411 350.723014,0 359.768258,0 C379.427669,0 395.81051,3.10200215 408.916784,9.30600645 C422.023057,15.5100107 432.746372,22.2956405 441.086728,29.6628956 C452.405782,21.5201399 464.916316,14.5406351 478.618329,8.72438105 C485.743375,5.69992895 494.318214,3.4618344 504.342846,2.01009739 L505.896535,1.79295724 L506.681958,1.68904017 L506.681958,1.68904017 L508.269962,1.49051203 C509.069683,1.39434997 509.877982,1.3028409 510.69486,1.21598484 L512.340055,1.04847673 L513.171231,0.969375672 L513.171231,0.969375672 L514.850741,0.820479569 C516.823513,0.654005453 518.842991,0.512864355 520.909175,0.397056275 L522.691628,0.303996211 L523.591434,0.262119182 L523.591434,0.262119182 L525.408201,0.18767113 C526.017603,0.164923114 526.630818,0.1442431 527.247846,0.125631087 L529.110366,0.0759990527 C529.735019,0.0615230426 530.363485,0.049115034 530.995763,0.0387750269 L532.904037,0.0139590097 C533.863892,0.00465300322 534.832327,0 535.80934,0 Z" id="Path"></path>
                        </g>
                    </g>
                </g>
            </g>
        </g>
    </g>
</svg>