<?xml version="1.0" encoding="UTF-8"?>
<svg width="1024px" height="1024px" viewBox="0 0 1024 1024" version="1.1" xmlns="http://www.w3.org/2000/svg" xmlns:xlink="http://www.w3.org/1999/xlink">
    <title>logo.dark</title>
    <g id="Support-Site-svg" stroke="none" stroke-width="1" fill="none" fill-rule="evenodd">
        <g id="Dark&amp;Light" transform="translate(-538.000000, -1355.000000)" fill="#F1F1F2">
            <path d="M1091.99664,1455 L1205.6438,1455.407 C1215.43173,1455.407 1225.21965,1455.402 1235.00758,1455.462 C1243.25252,1455.513 1251.49546,1455.607 1259.7384,1455.83 C1277.69127,1456.315 1295.80313,1457.37199 1313.558,1460.55998 C1331.58687,1463.79697 1348.36574,1469.08295 1364.74562,1477.41792 C1380.8345,1485.60489 1395.55539,1496.29885 1408.3203,1509.0578 C1421.0882,1521.81676 1431.78912,1536.5337 1439.98106,1552.61664 C1448.314,1568.97959 1453.60196,1585.74052 1456.83994,1603.74946 C1460.03292,1621.50239 1461.09191,1639.60933 1461.5759,1657.56226 C1461.7999,1665.79923 1461.8949,1674.0382 1461.9439,1682.27917 C1462,1692.06214 1462,1701.8451 1462,1711.62707 L1462,1711.62707 L1462,2022.42693 C1462,2032.2229 1462,2042.01886 1461.9439,2051.81483 C1461.8949,2060.0658 1461.7999,2068.31577 1461.5769,2076.56574 C1461.09191,2094.53467 1460.03392,2112.66061 1456.84394,2130.43054 C1453.60396,2148.47548 1448.316,2165.26841 1439.97806,2181.66035 C1431.78612,2197.7633 1421.0862,2212.49724 1408.3203,2225.2722 C1395.55439,2238.05115 1380.8305,2248.76111 1364.73862,2256.95908 C1348.36774,2265.30005 1331.59687,2270.59103 1313.579,2273.83202 C1295.81613,2277.02701 1277.69827,2278.087 1259.7384,2278.573 C1251.49546,2278.796 1243.25252,2278.891 1235.00758,2278.941 C1225.21965,2279 1215.43173,2279 1205.6438,2279 L1205.6438,2279 L895.361095,2279 C885.554168,2279 875.74824,2279 865.941313,2278.941 C857.679374,2278.891 849.420435,2278.796 841.161496,2278.573 C823.173629,2278.088 805.026764,2277.02901 787.237895,2273.83602 C769.174029,2270.59503 752.362153,2265.30205 735.950275,2256.95608 C719.830394,2248.75711 705.081503,2238.04915 692.290598,2225.2722 C679.499693,2212.49524 668.776772,2197.7593 660.568833,2181.65335 C652.219895,2165.26941 646.922934,2148.48448 643.677958,2130.45154 C640.478982,2112.67461 639.41799,2094.54167 638.931993,2076.56574 C638.708995,2068.31677 638.612995,2060.0668 638.562996,2051.81483 C638.503996,2042.01886 638.507996,2032.2229 638.507996,2022.42693 L638.507996,2022.42693 L638,1909.99834 L638,1713.99906 C638,1704.21609 638.502996,1692.06314 638.562996,1682.27917 C638.612995,1674.0392 638.708995,1665.80023 638.930993,1657.56226 C639.41799,1639.61733 640.476982,1621.51639 643.672958,1603.77046 C646.918934,1585.75152 652.216895,1568.98059 660.572833,1552.60964 C668.779772,1536.5297 679.500693,1521.81576 692.290598,1509.0578 C705.082503,1496.29685 719.835394,1485.60189 735.958275,1477.41392 C752.360154,1469.08495 769.164029,1463.80097 787.216896,1460.56498 C805.013764,1457.37299 823.166629,1456.315 841.161496,1455.83 C849.420435,1455.607 857.678374,1455.513 865.940313,1455.462 C875.74724,1455.402 885.554168,1455.407 895.361095,1455.407 L895.361095,1455.407 L1006.99727,1455 L1091.99664,1455 Z M1278.96696,1707 C1277.94225,1707 1276.92654,1707.00488 1275.91982,1707.01464 L1275.91982,1707.01464 L1273.91839,1707.04068 C1273.25525,1707.05152 1272.5961,1707.06454 1271.94095,1707.07972 L1271.94095,1707.07972 L1269.9875,1707.13179 C1269.34035,1707.15131 1268.6972,1707.17301 1268.05805,1707.19687 L1268.05805,1707.19687 L1266.15259,1707.27497 L1265.20886,1707.3189 L1263.33939,1707.41652 C1261.17233,1707.538 1259.05427,1707.68606 1256.98519,1707.8607 L1256.98519,1707.8607 L1255.22369,1708.01689 L1254.35193,1708.09987 L1252.62642,1708.27559 C1251.76966,1708.36671 1250.9219,1708.4627 1250.08314,1708.56358 L1250.08314,1708.56358 L1248.41761,1708.77184 L1247.59385,1708.88085 L1245.96431,1709.10863 C1235.45028,1710.63153 1226.45683,1712.97934 1218.98395,1716.15205 C1204.61302,1722.25341 1191.49173,1729.57505 1179.6201,1738.11696 C1170.87257,1730.38856 1159.62576,1723.27031 1145.87965,1716.76218 C1132.13354,1710.25406 1114.95091,1707 1094.33175,1707 C1084.84493,1707 1076.093,1707.59324 1068.0768,1708.78055 C1052.26574,1710.04202 1039.27317,1712.83252 1029.09912,1717.15205 C1014.72819,1723.25341 1001.6069,1730.57505 989.735264,1739.11696 C980.987741,1731.38856 969.740926,1724.27031 955.994819,1717.76218 C942.248712,1711.25406 925.066078,1708 904.446917,1708 C882.57811,1708 864.614447,1711.15237 850.555928,1717.45712 C836.816921,1723.61857 825.017335,1731.43106 815.157169,1740.89458 L815.157169,1740.89458 L814.472397,1741.5575 L812.597928,1741.5575 L812.593922,1741.06311 C812.329911,1724.77966 799.04761,1711.66082 782.701241,1711.66082 L782.701241,1711.66082 L749,1711.66082 C731.326888,1711.66082 717,1725.98771 717,1743.66082 L717,1743.66082 L717,1996 C717,2013.67311 731.326888,2028 749,2028 L749,2028 L780.597928,2028 C798.27104,2028 812.597928,2013.67311 812.597928,1996 L812.597928,1996 L812.597928,1819.94347 L812.600698,1819.26594 C812.711524,1805.76784 816.147127,1795.41798 822.907508,1788.21637 C829.251865,1781.45794 840.387765,1777.81878 856.315207,1777.2989 L856.315207,1777.2989 L857.653585,1777.2628 C858.553232,1777.24355 859.467667,1777.23392 860.396891,1777.23392 C875.392645,1777.23392 886.951871,1780.48798 895.074571,1786.9961 C903.064112,1793.39753 907.12437,1802.16015 907.255346,1813.28395 L907.255346,1813.28395 L907.25862,1813.84211 L907.258053,1830.219 L906.884831,1830.53606 L907.198161,1996.06057 C907.23157,2013.71 921.548643,2028 939.198103,2028 L939.198103,2028 L970.856548,2028 C988.52966,2028 1002.85655,2013.67311 1002.85655,1996 L1002.85655,1996 L1002.85655,1819.94347 L1002.85932,1819.26594 C1002.97014,1805.76784 1006.40575,1795.41798 1013.16613,1788.21637 C1019.51049,1781.45794 1030.64639,1777.81878 1046.57383,1777.2989 L1046.57383,1777.2989 L1047.91221,1777.2628 C1048.81185,1777.24355 1049.72629,1777.23392 1050.65551,1777.23392 C1065.65127,1777.23392 1077.21049,1780.48798 1085.33319,1786.9961 C1089.72744,1790.51689 1092.93308,1794.75193 1094.95011,1799.70124 L1094.95011,1799.70124 L1095.09695,1800.06876 C1096.46128,1803.91661 1097.14345,1808.17439 1097.14345,1812.84211 L1097.14345,1812.84211 L1094.89799,1995.60687 L1094.89557,1996 C1094.89557,2013.67311 1109.22246,2028 1126.89557,2028 L1126.89557,2028 L1161.11517,2028 C1178.78827,2028 1193.11515,2013.6731 1193.11519,1996 L1193.11519,1996 L1193.11534,1811.39574 C1194.17504,1801.20336 1197.48691,1793.14357 1203.05096,1787.21637 C1209.39532,1780.45794 1220.53122,1776.81878 1236.45866,1776.2989 L1236.45866,1776.2989 L1237.79704,1776.2628 C1238.69668,1776.24355 1239.61112,1776.23392 1240.54034,1776.23392 C1255.5361,1776.23392 1267.09532,1779.48798 1275.21802,1785.9961 C1283.34072,1792.50422 1287.40207,1801.45289 1287.40207,1812.84211 L1287.40207,1812.84211 L1287.40207,1995 C1287.40207,2012.67311 1301.72896,2027 1319.40207,2027 L1319.40207,2027 L1351,2027 C1368.67311,2027 1383,2012.67311 1383,1995 L1383,1995 L1383,1781.90469 C1382.88536,1768.40262 1379.76228,1756.95908 1373.62765,1747.57407 C1367.37942,1738.01527 1359.25672,1730.18519 1349.25955,1724.08382 C1339.26239,1717.98246 1328.01557,1713.60981 1315.51911,1710.96589 C1303.02265,1708.32196 1290.8386,1707 1278.96696,1707 Z" id="logo.dark"></path>
        </g>
    </g>
</svg>