<?xml version="1.0" encoding="UTF-8"?>
<svg width="1024px" height="1024px" viewBox="0 0 1024 1024" version="1.1" xmlns="http://www.w3.org/2000/svg" xmlns:xlink="http://www.w3.org/1999/xlink">
    <title>logo.light</title>
    <g id="Support-Site-svg" stroke="none" stroke-width="1" fill="none" fill-rule="evenodd">
        <g id="Dark&amp;Light" transform="translate(-538.000000, -274.000000)" fill="#222427">
            <path d="M1091.99664,374 L1205.6438,374.406999 C1215.43173,374.406999 1225.21965,374.401999 1235.00758,374.461998 C1243.25252,374.512998 1251.49546,374.606998 1259.7384,374.829997 C1277.69127,375.314995 1295.80313,376.371991 1313.558,379.55998 C1331.58687,382.796968 1348.36574,388.082949 1364.74562,396.417918 C1380.8345,404.604889 1395.55539,415.29885 1408.3203,428.057803 C1421.0882,440.816757 1431.78912,455.533703 1439.98106,471.616645 C1448.314,487.979585 1453.60196,504.740524 1456.83994,522.749458 C1460.03292,540.502394 1461.09191,558.609328 1461.5759,576.562263 C1461.7999,584.799233 1461.8949,593.038203 1461.9439,601.279173 C1462,611.062137 1462,620.845101 1462,630.627066 L1462,630.627066 L1462,941.426934 C1462,951.222898 1462,961.018863 1461.9439,970.814827 C1461.8949,979.065797 1461.7999,987.315767 1461.5769,995.565737 C1461.09191,1013.53467 1460.03392,1031.66061 1456.84394,1049.43054 C1453.60396,1067.47548 1448.316,1084.26841 1439.97806,1100.66035 C1431.78612,1116.7633 1421.0862,1131.49724 1408.3203,1144.2722 C1395.55439,1157.05115 1380.8305,1167.76111 1364.73862,1175.95908 C1348.36774,1184.30005 1331.59687,1189.59103 1313.579,1192.83202 C1295.81613,1196.02701 1277.69827,1197.087 1259.7384,1197.573 C1251.49546,1197.796 1243.25252,1197.891 1235.00758,1197.941 C1225.21965,1198 1215.43173,1198 1205.6438,1198 L1205.6438,1198 L895.361095,1198 C885.554168,1198 875.74824,1198 865.941313,1197.941 C857.679374,1197.891 849.420435,1197.796 841.161496,1197.573 C823.173629,1197.088 805.026764,1196.02901 787.237895,1192.83602 C769.174029,1189.59503 752.362153,1184.30205 735.950275,1175.95608 C719.830394,1167.75711 705.081503,1157.04915 692.290598,1144.2722 C679.499693,1131.49524 668.776772,1116.7593 660.568833,1100.65335 C652.219895,1084.26941 646.922934,1067.48448 643.677958,1049.45154 C640.478982,1031.67461 639.41799,1013.54167 638.931993,995.565737 C638.708995,987.316767 638.612995,979.066797 638.562996,970.814827 C638.503996,961.018863 638.507996,951.222898 638.507996,941.426934 L638.507996,941.426934 L638,828.998343 L638,632.999057 C638,623.216093 638.502996,611.063137 638.562996,601.279173 C638.612995,593.039203 638.708995,584.800233 638.930993,576.562263 C639.41799,558.617328 640.476982,540.516394 643.672958,522.770458 C646.918934,504.751524 652.216895,487.980585 660.572833,471.609645 C668.779772,455.529703 679.500693,440.815757 692.290598,428.057803 C705.082503,415.29685 719.835394,404.601889 735.958275,396.413918 C752.360154,388.084949 769.164029,382.800968 787.216896,379.56498 C805.013764,376.372991 823.166629,375.314995 841.161496,374.829997 C849.420435,374.606998 857.678374,374.512998 865.940313,374.461998 C875.74724,374.401999 885.554168,374.406999 895.361095,374.406999 L895.361095,374.406999 L1006.99727,374 L1091.99664,374 Z M1278.96696,626 C1277.94225,626 1276.92654,626.004881 1275.91982,626.014643 L1275.91982,626.014643 L1273.91839,626.040676 C1273.25525,626.051523 1272.5961,626.064539 1271.94095,626.079724 L1271.94095,626.079724 L1269.9875,626.131789 C1269.34035,626.151314 1268.6972,626.173008 1268.05805,626.196871 L1268.05805,626.196871 L1266.15259,626.274968 L1265.20886,626.318898 L1263.33939,626.41652 C1261.17233,626.538005 1259.05427,626.686065 1256.98519,626.860699 L1256.98519,626.860699 L1255.22369,627.016894 L1254.35193,627.099873 L1252.62642,627.275592 C1251.76966,627.366706 1250.9219,627.4627 1250.08314,627.563576 L1250.08314,627.563576 L1248.41761,627.771836 L1247.59385,627.880847 L1245.96431,628.108632 C1235.45028,629.631532 1226.45683,631.979337 1218.98395,635.152047 C1204.61302,641.253411 1191.49173,648.575049 1179.6201,657.116959 C1170.87257,649.388564 1159.62576,642.270305 1145.87965,635.762183 C1132.13354,629.254061 1114.95091,626 1094.33175,626 C1084.84493,626 1076.093,626.593238 1068.0768,627.780548 C1052.26574,629.042019 1039.27317,631.832518 1029.09912,636.152047 C1014.72819,642.253411 1001.6069,649.575049 989.735264,658.116959 C980.987741,650.388564 969.740926,643.270305 955.994819,636.762183 C942.248712,630.254061 925.066078,627 904.446917,627 C882.57811,627 864.614447,630.152372 850.555928,636.457115 C836.816921,642.618569 825.017335,650.431057 815.157169,659.89458 L815.157169,659.89458 L814.472397,660.557505 L812.597928,660.557505 L812.593922,660.063109 C812.329911,643.779656 799.04761,630.660819 782.701241,630.660819 L782.701241,630.660819 L749,630.660819 C731.326888,630.660819 717,644.987707 717,662.660819 L717,662.660819 L717,915 C717,932.673112 731.326888,947 749,947 L749,947 L780.597928,947 C798.27104,947 812.597928,932.673112 812.597928,915 L812.597928,915 L812.597928,738.94347 L812.600698,738.265941 C812.711524,724.767841 816.147127,714.417985 822.907508,707.216374 C829.251865,700.45794 840.387765,696.818783 856.315207,696.298903 L856.315207,696.298903 L857.653585,696.2628 C858.553232,696.243546 859.467667,696.233918 860.396891,696.233918 C875.392645,696.233918 886.951871,699.487979 895.074571,705.996101 C903.064112,712.397533 907.12437,721.160148 907.255346,732.283948 L907.255346,732.283948 L907.25862,732.842105 L907.258053,749.219 L906.884831,749.536062 L907.198161,915.060574 C907.23157,932.710004 921.548643,947 939.198103,947 L939.198103,947 L970.856548,947 C988.52966,947 1002.85655,932.673112 1002.85655,915 L1002.85655,915 L1002.85655,738.94347 L1002.85932,738.265941 C1002.97014,724.767841 1006.40575,714.417985 1013.16613,707.216374 C1019.51049,700.45794 1030.64639,696.818783 1046.57383,696.298903 L1046.57383,696.298903 L1047.91221,696.2628 C1048.81185,696.243546 1049.72629,696.233918 1050.65551,696.233918 C1065.65127,696.233918 1077.21049,699.487979 1085.33319,705.996101 C1089.72744,709.516889 1092.93308,713.751934 1094.95011,718.701238 L1094.95011,718.701238 L1095.09695,719.068757 C1096.46128,722.916612 1097.14345,727.174395 1097.14345,731.842105 L1097.14345,731.842105 L1094.89799,914.606874 L1094.89557,915 C1094.89557,932.673112 1109.22246,947 1126.89557,947 L1126.89557,947 L1161.11517,947 C1178.78827,947 1193.11515,932.673102 1193.11519,915 L1193.11519,915 L1193.11534,730.395742 C1194.17504,720.20336 1197.48691,712.143571 1203.05096,706.216374 C1209.39532,699.45794 1220.53122,695.818783 1236.45866,695.298903 L1236.45866,695.298903 L1237.79704,695.2628 C1238.69668,695.243546 1239.61112,695.233918 1240.54034,695.233918 C1255.5361,695.233918 1267.09532,698.487979 1275.21802,704.996101 C1283.34072,711.504224 1287.40207,720.452891 1287.40207,731.842105 L1287.40207,731.842105 L1287.40207,914 C1287.40207,931.673112 1301.72896,946 1319.40207,946 L1319.40207,946 L1351,946 C1368.67311,946 1383,931.673112 1383,914 L1383,914 L1383,700.904687 C1382.88536,687.40262 1379.76228,675.959082 1373.62765,666.574074 C1367.37942,657.01527 1359.25672,649.185185 1349.25955,643.083821 C1339.26239,636.982456 1328.01557,632.609812 1315.51911,629.965887 C1303.02265,627.321962 1290.8386,626 1278.96696,626 Z" id="logo.light"></path>
        </g>
    </g>
</svg>