<?xml version="1.0" encoding="UTF-8"?>
<svg width="157px" height="40px" viewBox="0 0 157 40" version="1.1" xmlns="http://www.w3.org/2000/svg" xmlns:xlink="http://www.w3.org/1999/xlink">
    <title>comingSoon.light</title>
    <g id="Support-Site-svg" stroke="none" stroke-width="1" fill="none" fill-rule="evenodd">
        <g id="Coming-soon" transform="translate(-31.000000, -81.000000)" fill-rule="nonzero">
            <g id="comingSoon.light" transform="translate(31.000000, 81.000000)">
                <path d="M146.57123,0 L9.53468,0 C9.16798,0 8.80568,0 8.43995,0.00213 C8.1338,0.00413 7.83009,0.00994 7.521,0.01483 C6.84951368,0.0227318036 6.17960647,0.0818062599 5.5171,0.19154 C4.85552408,0.303662628 4.21467252,0.51504574 3.61622,0.81854 C3.0184995,1.12460185 2.47234513,1.52229766 1.99757,1.9972 C1.5203025,2.47076699 1.12246318,3.01814638 0.81935,3.61829 C0.515400242,4.21723912 0.304640498,4.8590683 0.19435,5.52161 C0.0830109412,6.18331491 0.0230983806,6.85265054 0.01515,7.52361 C0.00587,7.83021 0.00489,8.13783 0,8.44447 L0,31.55873 C0.00489,31.86923 0.00587,32.17003 0.01514,32.48063 C0.023090818,33.1515562 0.0830033796,33.8208584 0.19434,34.48253 C0.304325953,35.145459 0.515098158,35.7876566 0.81934,36.38683 C1.12231859,36.9850336 1.52021726,37.530197 1.99757,38.00113 C2.47054494,38.4781439 3.01705233,38.8761103 3.61622,39.17983 C4.21466797,39.4841365 4.85545044,39.6967778 5.5171,39.81063 C6.1797191,39.9194847 6.84955741,39.9785832 7.521,39.98743 C7.83009,39.99423 8.1338,39.99813 8.43995,39.99813 C8.80567,40.00013 9.168,40.00013 9.53468,40.00013 L146.57123,40.00013 C146.93063,40.00013 147.29583,40.00013 147.65523,39.99813 C147.95993,39.99813 148.27243,39.99423 148.57713,39.98743 C149.247303,39.9790537 149.91588,39.9199515 150.57713,39.81063 C151.240914,39.6959764 151.883994,39.4833914 152.48533,39.17983 C153.083957,38.8759346 153.62996,38.4779791 154.10253,38.00113 C154.578648,37.5283518 154.977392,36.9835873 155.28413,36.38683 C155.586089,35.7872208 155.794855,35.1450745 155.90323,34.48253 C156.014745,33.8207676 156.076783,33.1516143 156.08883,32.48063 C156.09273,32.17003 156.09273,31.86923 156.09273,31.55873 C156.10053,31.19543 156.10053,30.83413 156.10053,30.46493 L156.10053,9.53626 C156.10053,9.17005 156.10053,8.80677 156.09273,8.44447 C156.09273,8.13783 156.09273,7.83021 156.08883,7.52357 C156.076786,6.85255244 156.014747,6.18336567 155.90323,5.52157 C155.794553,4.8594116 155.585799,4.21763328 155.28413,3.61825 C154.666854,2.41532608 153.688033,1.4361554 152.48533,0.81845 C151.883992,0.51569738 151.240843,0.30437041 150.57713,0.19145 C149.915995,0.0812327831 149.247348,0.0221377649 148.57713,0.01469 C148.27243,0.00981 147.95993,0.00395 147.65523,0.002 C147.29583,0 146.93063,0 146.57123,0 L146.57123,0 Z" id="Path" fill="#A6A6A6"></path>
                <path d="M8.57182,39.25 C8.26714,39.25 7.96977,39.2461 7.66753,39.2393 C7.04131177,39.2311407 6.41655717,39.176625 5.79839,39.0762 C5.2219803,38.9769282 4.66359424,38.7922645 4.14165,38.5283 C3.6244917,38.2665227 3.15280177,37.9232729 2.74465,37.5117 C2.33059033,37.1049753 1.98586673,36.633244 1.72414,36.1152 C1.45952897,35.5937893 1.27640257,35.0348996 1.18114,34.458 C1.0782639,33.8381149 1.02260391,33.2113133 1.01464,32.583 C1.0083,32.3721 1,31.6699 1,31.6699 L1,8.56934 C1,8.56934 1.00884,7.87793 1.01469,7.6748 C1.02231556,7.04748204 1.07765188,6.42165306 1.18022,5.80273 C1.27565903,5.22425015 1.45892716,4.66374899 1.72368,4.14063 C1.98444497,3.62294394 2.32725472,3.15086041 2.73882,2.74268 C3.14992283,2.33062142 3.62312161,1.98560412 4.14116,1.72021 C4.66190467,1.4570936 5.21923545,1.27373255 5.79448,1.17627 C6.41467733,1.07483614 7.04160084,1.01999608 7.66999,1.01221 L8.57231,1 L147.77731,1 L148.69041,1.0127 C149.313083,1.0200992 149.934312,1.07445001 150.54881,1.17529 C151.129878,1.27397507 151.693017,1.45861553 152.21971,1.72314 C153.257528,2.25798605 154.101982,3.10416295 154.63471,4.14307 C154.895237,4.66257756 155.075679,5.21850676 155.16991,5.79199 C155.273699,6.41599138 155.331787,7.04673834 155.34371,7.6792 C155.34661,7.9624 155.34661,8.2666 155.34661,8.56934 C155.35451,8.94434 155.35451,9.30127 155.35451,9.66113 L155.35451,30.5898 C155.35451,30.9531 155.35451,31.3076 155.34661,31.665 C155.34661,31.9902 155.34661,32.2881 155.34271,32.5947 C155.331045,33.2158757 155.273926,33.8353642 155.17181,34.4482 C155.0785,35.0292612 154.89637,35.5925131 154.63181,36.1182 C154.368233,36.6306211 154.025489,37.0982662 153.61621,37.5039 C153.207691,37.9176846 152.735169,38.2629427 152.21681,38.5264 C151.691576,38.7923937 151.129266,38.9777403 150.54881,39.0762 C149.93069,39.177161 149.305875,39.2316802 148.67961,39.2393 C148.38671,39.2461 148.08001,39.25 147.78221,39.25 L146.69821,39.252 L8.57182,39.25 Z" id="Path" fill="#000000"></path>
                <path d="M24.0605469,27.2246094 C27.0488281,27.2246094 29.4511719,25.3984375 30.1738281,22.5859375 L27.9960938,22.5859375 C27.3808594,24.2167969 25.9257812,25.1933594 24.1289062,25.1933594 C21.84375,25.1933594 20.4375,23.6210938 20.4375,21.0527344 C20.4375,17.3710938 22.5078125,14.7050781 25.5058594,14.7050781 C27.3515625,14.7050781 28.7382812,15.7597656 28.9042969,17.4492188 C28.9140625,17.5761719 28.9140625,17.6640625 28.9140625,17.7226562 L31.1015625,17.7226562 L31.1015625,17.3710938 L31.1015625,17.3710938 C30.9453125,14.5292969 28.7089844,12.6835938 25.59375,12.6835938 C21.2480469,12.6835938 18.1914062,16.2578125 18.1914062,21.1601562 C18.1914062,24.8613281 20.4765625,27.2246094 24.0605469,27.2246094 Z M35.9648438,27.1953125 C39.0703125,27.1953125 41.3945312,24.5390625 41.3945312,21.0625 C41.3945312,18.3085938 39.6464844,16.4921875 36.9609375,16.4921875 C33.8554688,16.4921875 31.53125,19.1582031 31.53125,22.6347656 C31.53125,25.3789062 33.2695312,27.1953125 35.9648438,27.1953125 Z M35.9941406,25.3496094 C34.5683594,25.3496094 33.6503906,24.2558594 33.6503906,22.5761719 C33.6503906,20.1640625 35.0273438,18.3378906 36.921875,18.3378906 C38.3574219,18.3378906 39.265625,19.4414062 39.265625,21.1210938 C39.265625,23.5234375 37.8886719,25.3496094 35.9941406,25.3496094 Z M44.0410156,27 L45.3984375,20.6035156 C45.6816406,19.2753906 46.765625,18.3574219 47.8691406,18.3574219 C48.9238281,18.3574219 49.5292969,19.0800781 49.5292969,19.9785156 C49.5292969,20.2519531 49.4902344,20.5449219 49.4121094,20.8769531 L48.1132812,27 L50.1835938,27 L51.53125,20.6132812 C51.8339844,19.2070312 52.9082031,18.3574219 54.0117188,18.3574219 C55.0566406,18.3574219 55.6621094,19.0800781 55.6621094,19.9785156 C55.6621094,20.2519531 55.6328125,20.5449219 55.5546875,20.8769531 L54.265625,27 L56.3554688,27 L57.7226562,20.5253906 C57.8105469,20.0957031 57.8496094,19.6953125 57.8496094,19.3242188 C57.8496094,17.6640625 56.6289062,16.4921875 54.9589844,16.4921875 C53.328125,16.4921875 52.2050781,17.3710938 51.5507812,18.3378906 L51.5117188,18.3378906 C51.2578125,17.3613281 50.2617188,16.4921875 48.8261719,16.4921875 C47.5078125,16.4921875 46.3554688,17.3222656 45.828125,18.3476562 L45.7890625,18.3476562 L46.1308594,16.6972656 L44.1289062,16.6972656 L41.9511719,27 L44.0410156,27 Z M62.4785156,15.0761719 C63.1523438,15.0761719 63.6894531,14.5 63.6894531,13.8164062 C63.6894531,13.1230469 63.1523438,12.5566406 62.4785156,12.5566406 C61.8046875,12.5566406 61.2578125,13.1230469 61.2578125,13.8164062 C61.2578125,14.5 61.8046875,15.0761719 62.4785156,15.0761719 Z M60.7207031,27 L62.9082031,16.6972656 L60.7988281,16.6972656 L58.6113281,27 L60.7207031,27 Z M65.0957031,27 L66.4042969,20.8476562 C66.7363281,19.3242188 67.8691406,18.3574219 69.2460938,18.3574219 C70.4570312,18.3574219 71.2675781,19.0507812 71.2675781,20.1640625 C71.2675781,20.4082031 71.2382812,20.75 71.1503906,21.1210938 L69.9101562,27 L72,27 L73.3183594,20.7597656 C73.40625,20.3105469 73.4550781,19.8613281 73.4550781,19.5 C73.4550781,17.7421875 72.0683594,16.4921875 70.2324219,16.4921875 C68.7578125,16.4921875 67.5859375,17.1757812 66.8925781,18.2890625 L66.8535156,18.2890625 L67.1855469,16.6972656 L65.1835938,16.6972656 L63.0058594,27 L65.0957031,27 Z M78.2304688,30.8867188 C80.90625,30.8867188 82.859375,29.4609375 83.4550781,26.6875 L85.5449219,16.6972656 L83.5039062,16.6972656 L83.0742188,18.7773438 L83.0058594,18.7773438 C82.6542969,17.4785156 81.3945312,16.5410156 79.8125,16.5214844 C76.5703125,16.4824219 74.6757812,19.5488281 74.6757812,22.7226562 C74.6757812,25.28125 76.1796875,26.9414062 78.4453125,26.9414062 C79.7539062,26.9414062 81.0039062,26.2675781 81.6289062,25.2421875 L81.6972656,25.2421875 L81.3652344,26.6582031 C80.9453125,28.3476562 79.9101562,29.1875 78.2695312,29.1875 C77,29.1875 76.1308594,28.6308594 75.9941406,27.7714844 L73.8847656,27.7714844 C73.8945312,29.6269531 75.7109375,30.8867188 78.2304688,30.8867188 Z M79.0996094,25.1933594 C77.5859375,25.1933594 76.7753906,24.1289062 76.7753906,22.5761719 C76.7753906,20.2324219 78.0644531,18.3964844 79.9980469,18.3964844 C81.3652344,18.3964844 82.4101562,19.4609375 82.4101562,20.9941406 C82.4101562,23.25 81.1308594,25.1933594 79.0996094,25.1933594 Z M94.5683594,27.1953125 C96.9804688,27.1953125 98.7089844,25.828125 98.7089844,23.8945312 C98.7089844,22.5371094 97.9570312,21.7363281 96.0917969,21.1308594 L95.1542969,20.828125 C93.9238281,20.4472656 93.5136719,20.1152344 93.5136719,19.4707031 C93.5136719,18.7089844 94.2460938,18.1621094 95.4375,18.1621094 C96.5507812,18.1621094 97.3710938,18.8164062 97.4492188,19.7246094 L99.4023438,19.7246094 C99.3730469,17.8300781 97.7714844,16.5019531 95.4667969,16.5019531 C93.0839844,16.5019531 91.4824219,17.8105469 91.4824219,19.6660156 C91.4824219,21.0820312 92.2832031,21.9511719 94.1582031,22.5566406 L95.0566406,22.8398438 C96.2871094,23.2207031 96.6191406,23.4941406 96.6191406,24.0800781 C96.6191406,24.9003906 95.7890625,25.5253906 94.6464844,25.5253906 C93.3085938,25.5253906 92.4785156,24.8613281 92.3417969,23.9042969 L90.2910156,23.9042969 C90.359375,25.8183594 92.0195312,27.1953125 94.5683594,27.1953125 Z M104.832031,27.1953125 C107.9375,27.1953125 110.261719,24.5390625 110.261719,21.0625 C110.261719,18.3085938 108.513672,16.4921875 105.828125,16.4921875 C102.722656,16.4921875 100.398438,19.1582031 100.398438,22.6347656 C100.398438,25.3789062 102.136719,27.1953125 104.832031,27.1953125 Z M104.861328,25.3496094 C103.435547,25.3496094 102.517578,24.2558594 102.517578,22.5761719 C102.517578,20.1640625 103.894531,18.3378906 105.789062,18.3378906 C107.224609,18.3378906 108.132812,19.4414062 108.132812,21.1210938 C108.132812,23.5234375 106.755859,25.3496094 104.861328,25.3496094 Z M115.896484,27.1953125 C119.001953,27.1953125 121.326172,24.5390625 121.326172,21.0625 C121.326172,18.3085938 119.578125,16.4921875 116.892578,16.4921875 C113.787109,16.4921875 111.462891,19.1582031 111.462891,22.6347656 C111.462891,25.3789062 113.201172,27.1953125 115.896484,27.1953125 Z M115.925781,25.3496094 C114.5,25.3496094 113.582031,24.2558594 113.582031,22.5761719 C113.582031,20.1640625 114.958984,18.3378906 116.853516,18.3378906 C118.289062,18.3378906 119.197266,19.4414062 119.197266,21.1210938 C119.197266,23.5234375 117.820312,25.3496094 115.925781,25.3496094 Z M123.972656,27 L125.28125,20.8476562 C125.613281,19.3242188 126.746094,18.3574219 128.123047,18.3574219 C129.333984,18.3574219 130.144531,19.0507812 130.144531,20.1640625 C130.144531,20.4082031 130.115234,20.75 130.027344,21.1210938 L128.787109,27 L130.876953,27 L132.195312,20.7597656 C132.283203,20.3105469 132.332031,19.8613281 132.332031,19.5 C132.332031,17.7421875 130.945312,16.4921875 129.109375,16.4921875 C127.634766,16.4921875 126.462891,17.1757812 125.769531,18.2890625 L125.730469,18.2890625 L126.0625,16.6972656 L124.060547,16.6972656 L121.882812,27 L123.972656,27 Z M136.677734,22.3320312 L138.884766,12.9082031 L136.550781,12.9082031 L134.744141,22.3320312 L136.677734,22.3320312 Z M134.958984,27.1660156 C135.681641,27.1660156 136.248047,26.5898438 136.248047,25.8574219 C136.248047,25.1152344 135.681641,24.5390625 134.958984,24.5390625 C134.246094,24.5390625 133.679688,25.1152344 133.679688,25.8574219 C133.679688,26.5898438 134.246094,27.1660156 134.958984,27.1660156 Z" id="Comingsoon!" fill="#FFFFFF"></path>
            </g>
        </g>
    </g>
</svg>