<?xml version="1.0" encoding="UTF-8"?>
<svg width="513px" height="512px" viewBox="0 0 513 512" version="1.1" xmlns="http://www.w3.org/2000/svg" xmlns:xlink="http://www.w3.org/1999/xlink">
    <title>docImage</title>
    <defs>
        <path d="M365,0 L365,365 L0,365 L0,0 L365,0 Z M207.094727,20.6738281 L72.1699219,20.6738281 C64.9902201,20.6738281 59.1699219,26.4941264 59.1699219,33.6738281 L59.1699219,33.6738281 L59.1699219,331.326172 C59.1699219,338.505874 64.9902201,344.326172 72.1699219,344.326172 L72.1699219,344.326172 L292.117122,344.326106 C299.296787,344.303277 305.098549,338.464502 305.075721,331.284837 C304.851913,260.897248 304.628105,190.509659 304.404297,120.12207 C304.404297,111.923828 302.936888,109.877781 302.265625,109.072266 C296.32487,101.943359 267.92806,73.3089193 217.075195,23.1689453 C214.580078,21.3867188 212.797852,20.6738281 207.094727,20.6738281 L207.094727,20.6738281 Z" id="path-1"></path>
        <path d="M72.1699219,20.6738281 L207.094727,20.6738281 L207.094727,20.6738281 C212.797852,20.6738281 214.580078,21.3867188 217.075195,23.1689453 C271.730143,75.2099609 300.126953,103.844401 302.265625,109.072266 C302.696247,110.124897 304.404297,111.923828 304.404297,120.12207 C304.628105,190.509659 304.851913,260.897248 305.075721,331.284837 C305.098549,338.464502 299.296787,344.303277 292.117122,344.326106 C292.103343,344.32615 292.089565,344.326172 292.075786,344.326172 L72.1699219,344.326172 C64.9902201,344.326172 59.1699219,338.505874 59.1699219,331.326172 L59.1699219,33.6738281 C59.1699219,26.4941264 64.9902201,20.6738281 72.1699219,20.6738281 Z" id="path-3"></path>
        <filter x="-8.7%" y="-4.5%" width="117.5%" height="113.3%" filterUnits="objectBoundingBox" id="filter-4">
            <feMorphology radius="1" operator="dilate" in="SourceAlpha" result="shadowSpreadOuter1"></feMorphology>
            <feOffset dx="0" dy="7" in="shadowSpreadOuter1" result="shadowOffsetOuter1"></feOffset>
            <feGaussianBlur stdDeviation="5" in="shadowOffsetOuter1" result="shadowBlurOuter1"></feGaussianBlur>
            <feColorMatrix values="0 0 0 0 0   0 0 0 0 0   0 0 0 0 0  0 0 0 0.245574738 0" type="matrix" in="shadowBlurOuter1"></feColorMatrix>
        </filter>
        <linearGradient x1="22.200544%" y1="99.0298593%" x2="68.4725139%" y2="13.7921419%" id="linearGradient-5">
            <stop stop-color="#000000" stop-opacity="0.04" offset="0%"></stop>
            <stop stop-color="#000000" stop-opacity="0.06" offset="100%"></stop>
        </linearGradient>
        <path d="M13.8828125,0.673828125 L148.807617,0.673828125 L148.807617,0.673828125 C154.510742,0.673828125 156.292969,1.38671875 158.788086,3.16894531 C178.036133,22.4169922 223.304688,66.6162109 242.196289,86.9335938 C244.691406,89.7851562 245.760742,88.359375 246.117187,99.0527344 C246.341061,169.796834 246.564935,240.540933 246.788809,311.285033 C246.811529,318.464699 241.009679,324.303386 233.830013,324.326107 C233.8163,324.32615 233.802587,324.326172 233.788874,324.326172 L13.8828125,324.326172 C6.70311075,324.326172 0.8828125,318.505874 0.8828125,311.326172 L0.8828125,13.6738281 C0.8828125,6.49412638 6.70311075,0.673828125 13.8828125,0.673828125 Z" id="path-6"></path>
        <linearGradient x1="51.1145656%" y1="0%" x2="50%" y2="100.654521%" id="linearGradient-8">
            <stop stop-color="#0F408C" offset="0%"></stop>
            <stop stop-color="#0C3574" offset="45.3632955%"></stop>
            <stop stop-color="#14315D" offset="100%"></stop>
            <stop stop-color="#E8EDF4" offset="100%"></stop>
            <stop stop-color="#072046" offset="100%"></stop>
        </linearGradient>
        <linearGradient x1="22.2482735%" y1="99.0298593%" x2="68.4407981%" y2="13.7921419%" id="linearGradient-9">
            <stop stop-color="#000000" stop-opacity="0.04" offset="0%"></stop>
            <stop stop-color="#000000" stop-opacity="0.06" offset="100%"></stop>
        </linearGradient>
        <path d="M13,0 L148.044413,0 L148.044413,0 C153.752149,0 155.690012,0.382082853 158.032951,2.49779736 C184.074499,27.8325991 194.776504,37.8237885 244.719198,88.4933921 C245.119212,88.8992283 247.930436,89.0551544 248.286533,90.277533 C248.845917,92.1977383 245.432665,94.8769502 245.432665,97.0572687 C245.656821,168.357889 245.880977,239.65851 246.105134,310.959131 C246.127705,318.138797 240.325734,323.977364 233.146067,323.999936 C233.132444,323.999979 233.118821,324 233.105198,324 L13,324 C5.82029825,324 8.79259876e-16,318.179702 0,311 L0,13 C-8.79259876e-16,5.82029825 5.82029825,1.31888981e-15 13,0 Z" id="path-10"></path>
        <path d="M166.951289,11.7753304 L229.379656,74.2202643 L172.723444,86.3065492 C165.701738,87.804467 158.795218,83.3265515 157.2973,76.3048452 C156.959709,74.7223349 156.920526,73.0907073 157.181766,71.4938163 L166.951289,11.7753304 L166.951289,11.7753304 Z" id="path-12"></path>
        <filter x="-73.9%" y="-73.3%" width="249.1%" height="243.1%" filterUnits="objectBoundingBox" id="filter-13">
            <feMorphology radius="6" operator="dilate" in="SourceAlpha" result="shadowSpreadOuter1"></feMorphology>
            <feOffset dx="-7" dy="7" in="shadowSpreadOuter1" result="shadowOffsetOuter1"></feOffset>
            <feGaussianBlur stdDeviation="10" in="shadowOffsetOuter1" result="shadowBlurOuter1"></feGaussianBlur>
            <feColorMatrix values="0 0 0 0 0   0 0 0 0 0   0 0 0 0 0  0 0 0 0.34099104 0" type="matrix" in="shadowBlurOuter1"></feColorMatrix>
        </filter>
        <linearGradient x1="54.7515477%" y1="50%" x2="0%" y2="97.8024691%" id="linearGradient-14">
            <stop stop-color="#E5E5E5" offset="0%"></stop>
            <stop stop-color="#FAFAFA" offset="51.9312719%"></stop>
            <stop stop-color="#FEFEFE" offset="99.9207823%"></stop>
        </linearGradient>
        <path d="M365,0 L365,365 L0,365 L0,0 L365,0 Z M207.094727,20.6738281 L72.1699219,20.6738281 C64.9902201,20.6738281 59.1699219,26.4941264 59.1699219,33.6738281 L59.1699219,33.6738281 L59.1699219,331.326172 C59.1699219,338.505874 64.9902201,344.326172 72.1699219,344.326172 L72.1699219,344.326172 L292.117122,344.326106 C299.296787,344.303277 305.098549,338.464502 305.075721,331.284837 C304.851913,260.897248 304.628105,190.509659 304.404297,120.12207 C304.404297,111.923828 302.936888,109.877781 302.265625,109.072266 C296.32487,101.943359 267.92806,73.3089193 217.075195,23.1689453 C214.580078,21.3867188 212.797852,20.6738281 207.094727,20.6738281 L207.094727,20.6738281 Z" id="path-15"></path>
        <path d="M72.1699219,20.6738281 L207.094727,20.6738281 L207.094727,20.6738281 C212.797852,20.6738281 214.580078,21.3867188 217.075195,23.1689453 C271.730143,75.2099609 300.126953,103.844401 302.265625,109.072266 C302.696247,110.124897 304.404297,111.923828 304.404297,120.12207 C304.628105,190.509659 304.851913,260.897248 305.075721,331.284837 C305.098549,338.464502 299.296787,344.303277 292.117122,344.326106 C292.103343,344.32615 292.089565,344.326172 292.075786,344.326172 L72.1699219,344.326172 C64.9902201,344.326172 59.1699219,338.505874 59.1699219,331.326172 L59.1699219,33.6738281 C59.1699219,26.4941264 64.9902201,20.6738281 72.1699219,20.6738281 Z" id="path-17"></path>
        <filter x="-8.7%" y="-4.5%" width="117.5%" height="113.3%" filterUnits="objectBoundingBox" id="filter-18">
            <feMorphology radius="1" operator="dilate" in="SourceAlpha" result="shadowSpreadOuter1"></feMorphology>
            <feOffset dx="0" dy="7" in="shadowSpreadOuter1" result="shadowOffsetOuter1"></feOffset>
            <feGaussianBlur stdDeviation="5" in="shadowOffsetOuter1" result="shadowBlurOuter1"></feGaussianBlur>
            <feColorMatrix values="0 0 0 0 0   0 0 0 0 0   0 0 0 0 0  0 0 0 0.245574738 0" type="matrix" in="shadowBlurOuter1"></feColorMatrix>
        </filter>
        <path d="M13.8828125,0.673828125 L148.807617,0.673828125 L148.807617,0.673828125 C154.510742,0.673828125 156.292969,1.38671875 158.788086,3.16894531 C178.036133,22.4169922 223.304688,66.6162109 242.196289,86.9335938 C244.691406,89.7851562 245.760742,88.359375 246.117187,99.0527344 C246.341061,169.796834 246.564935,240.540933 246.788809,311.285033 C246.811529,318.464699 241.009679,324.303386 233.830013,324.326107 C233.8163,324.32615 233.802587,324.326172 233.788874,324.326172 L13.8828125,324.326172 C6.70311075,324.326172 0.8828125,318.505874 0.8828125,311.326172 L0.8828125,13.6738281 C0.8828125,6.49412638 6.70311075,0.673828125 13.8828125,0.673828125 Z" id="path-19"></path>
        <path d="M13,0 L148.044413,0 L148.044413,0 C153.752149,0 155.690012,0.382082853 158.032951,2.49779736 C184.074499,27.8325991 194.776504,37.8237885 244.719198,88.4933921 C245.119212,88.8992283 247.930436,89.0551544 248.286533,90.277533 C248.845917,92.1977383 245.432665,94.8769502 245.432665,97.0572687 C245.656821,168.357889 245.880977,239.65851 246.105134,310.959131 C246.127705,318.138797 240.325734,323.977364 233.146067,323.999936 C233.132444,323.999979 233.118821,324 233.105198,324 L13,324 C5.82029825,324 8.79259876e-16,318.179702 0,311 L0,13 C-8.79259876e-16,5.82029825 5.82029825,1.31888981e-15 13,0 Z" id="path-21"></path>
        <path d="M166.951289,11.7753304 L229.379656,74.2202643 L172.723444,86.3065492 C165.701738,87.804467 158.795218,83.3265515 157.2973,76.3048452 C156.959709,74.7223349 156.920526,73.0907073 157.181766,71.4938163 L166.951289,11.7753304 L166.951289,11.7753304 Z" id="path-23"></path>
        <filter x="-73.9%" y="-73.3%" width="249.1%" height="243.1%" filterUnits="objectBoundingBox" id="filter-24">
            <feMorphology radius="6" operator="dilate" in="SourceAlpha" result="shadowSpreadOuter1"></feMorphology>
            <feOffset dx="-7" dy="7" in="shadowSpreadOuter1" result="shadowOffsetOuter1"></feOffset>
            <feGaussianBlur stdDeviation="10" in="shadowOffsetOuter1" result="shadowBlurOuter1"></feGaussianBlur>
            <feColorMatrix values="0 0 0 0 0   0 0 0 0 0   0 0 0 0 0  0 0 0 0.34099104 0" type="matrix" in="shadowBlurOuter1"></feColorMatrix>
        </filter>
        <path d="M365,0 L365,365 L0,365 L0,0 L365,0 Z M207.094727,20.6738281 L72.1699219,20.6738281 C64.9902201,20.6738281 59.1699219,26.4941264 59.1699219,33.6738281 L59.1699219,33.6738281 L59.1699219,331.326172 C59.1699219,338.505874 64.9902201,344.326172 72.1699219,344.326172 L72.1699219,344.326172 L292.117122,344.326106 C299.296787,344.303277 305.098549,338.464502 305.075721,331.284837 C304.851913,260.897248 304.628105,190.509659 304.404297,120.12207 C304.404297,111.923828 302.936888,109.877781 302.265625,109.072266 C296.32487,101.943359 267.92806,73.3089193 217.075195,23.1689453 C214.580078,21.3867188 212.797852,20.6738281 207.094727,20.6738281 L207.094727,20.6738281 Z" id="path-25"></path>
        <path d="M72.1699219,20.6738281 L207.094727,20.6738281 L207.094727,20.6738281 C212.797852,20.6738281 214.580078,21.3867188 217.075195,23.1689453 C271.730143,75.2099609 300.126953,103.844401 302.265625,109.072266 C302.696247,110.124897 304.404297,111.923828 304.404297,120.12207 C304.628105,190.509659 304.851913,260.897248 305.075721,331.284837 C305.098549,338.464502 299.296787,344.303277 292.117122,344.326106 C292.103343,344.32615 292.089565,344.326172 292.075786,344.326172 L72.1699219,344.326172 C64.9902201,344.326172 59.1699219,338.505874 59.1699219,331.326172 L59.1699219,33.6738281 C59.1699219,26.4941264 64.9902201,20.6738281 72.1699219,20.6738281 Z" id="path-27"></path>
        <filter x="-8.7%" y="-4.5%" width="117.5%" height="113.3%" filterUnits="objectBoundingBox" id="filter-28">
            <feMorphology radius="1" operator="dilate" in="SourceAlpha" result="shadowSpreadOuter1"></feMorphology>
            <feOffset dx="0" dy="7" in="shadowSpreadOuter1" result="shadowOffsetOuter1"></feOffset>
            <feGaussianBlur stdDeviation="5" in="shadowOffsetOuter1" result="shadowBlurOuter1"></feGaussianBlur>
            <feColorMatrix values="0 0 0 0 0   0 0 0 0 0   0 0 0 0 0  0 0 0 0.245574738 0" type="matrix" in="shadowBlurOuter1"></feColorMatrix>
        </filter>
        <path d="M13.8828125,0.673828125 L148.807617,0.673828125 L148.807617,0.673828125 C154.510742,0.673828125 156.292969,1.38671875 158.788086,3.16894531 C178.036133,22.4169922 223.304688,66.6162109 242.196289,86.9335938 C244.691406,89.7851562 245.760742,88.359375 246.117187,99.0527344 C246.341061,169.796834 246.564935,240.540933 246.788809,311.285033 C246.811529,318.464699 241.009679,324.303386 233.830013,324.326107 C233.8163,324.32615 233.802587,324.326172 233.788874,324.326172 L13.8828125,324.326172 C6.70311075,324.326172 0.8828125,318.505874 0.8828125,311.326172 L0.8828125,13.6738281 C0.8828125,6.49412638 6.70311075,0.673828125 13.8828125,0.673828125 Z" id="path-29"></path>
        <path d="M13,0 L148.044413,0 L148.044413,0 C153.752149,0 155.690012,0.382082853 158.032951,2.49779736 C184.074499,27.8325991 194.776504,37.8237885 244.719198,88.4933921 C245.119212,88.8992283 247.930436,89.0551544 248.286533,90.277533 C248.845917,92.1977383 245.432665,94.8769502 245.432665,97.0572687 C245.656821,168.357889 245.880977,239.65851 246.105134,310.959131 C246.127705,318.138797 240.325734,323.977364 233.146067,323.999936 C233.132444,323.999979 233.118821,324 233.105198,324 L13,324 C5.82029825,324 8.79259876e-16,318.179702 0,311 L0,13 C-8.79259876e-16,5.82029825 5.82029825,1.31888981e-15 13,0 Z" id="path-31"></path>
        <path d="M166.951289,11.7753304 L229.379656,74.2202643 L172.723444,86.3065492 C165.701738,87.804467 158.795218,83.3265515 157.2973,76.3048452 C156.959709,74.7223349 156.920526,73.0907073 157.181766,71.4938163 L166.951289,11.7753304 L166.951289,11.7753304 Z" id="path-33"></path>
        <filter x="-73.9%" y="-73.3%" width="249.1%" height="243.1%" filterUnits="objectBoundingBox" id="filter-34">
            <feMorphology radius="6" operator="dilate" in="SourceAlpha" result="shadowSpreadOuter1"></feMorphology>
            <feOffset dx="-7" dy="7" in="shadowSpreadOuter1" result="shadowOffsetOuter1"></feOffset>
            <feGaussianBlur stdDeviation="10" in="shadowOffsetOuter1" result="shadowBlurOuter1"></feGaussianBlur>
            <feColorMatrix values="0 0 0 0 0   0 0 0 0 0   0 0 0 0 0  0 0 0 0.34099104 0" type="matrix" in="shadowBlurOuter1"></feColorMatrix>
        </filter>
    </defs>
    <g id="Document-Legacy" stroke="none" stroke-width="1" fill="none" fill-rule="evenodd">
        <g id="docImage" transform="translate(0.000000, 6.000000)">
            <g transform="translate(33.000000, 102.000000)">
                <g id="hoja-shadow">
                    <mask id="mask-2" fill="white">
                        <use xlink:href="#path-1"></use>
                    </mask>
                    <g id="Mask"></g>
                    <g id="Hoja" mask="url(#mask-2)" fill="black" fill-opacity="1">
                        <use filter="url(#filter-4)" xlink:href="#path-3"></use>
                    </g>
                </g>
                <g id="Icon-Background-Fill-Artwork" transform="translate(58.000000, 20.000000)">
                    <mask id="mask-7" fill="white">
                        <use xlink:href="#path-6"></use>
                    </mask>
                    <use id="Hoja" fill="url(#linearGradient-5)" xlink:href="#path-6"></use>
                    <g id="Group" mask="url(#mask-7)">
                        <g transform="translate(-59.000000, -20.000000)" id="Icon-Background-Fill-Artwork">
                            <rect id="Fill" fill="url(#linearGradient-8)" x="0" y="0" width="365" height="365"></rect>
                        </g>
                    </g>
                </g>
                <g id="Group" transform="translate(91.000000, 57.000000)" fill="#FFFFFF" fill-rule="nonzero">
                    <g id="m-de-maqueteer" transform="translate(0.000000, 94.716797)">
                        <path d="M154.414345,0 C157.676372,0 161.024241,0.363573419 164.457954,1.09072026 C167.891666,1.81786709 170.982007,3.02045609 173.728977,4.69848726 C176.475947,6.37651842 178.70786,8.52999175 180.424716,11.1589072 C182.110356,13.7400243 182.968501,16.8872896 183,20.6007032 L183,79.2073598 C183,84.0679172 179.063333,88.0081776 174.207207,88.0081776 L165.524894,88.0081776 C160.668768,88.0081776 156.732101,84.0679172 156.732101,79.2073598 L156.732101,29.1092837 C156.732101,25.9769589 155.616144,23.5158465 153.384232,21.7259466 C151.152319,19.9360467 147.976135,19.0410968 143.85568,19.0410968 C143.600353,19.0410968 143.349089,19.0437445 143.101889,19.0490401 L142.734136,19.0589693 C138.357677,19.2019494 135.297812,20.2028106 133.554543,22.0615528 C132.025683,23.6916834 131.115664,25.9083314 130.824485,28.7114969 L130.824445,79.4823854 C130.824434,84.3429401 126.887768,88.2832031 122.031645,88.2832031 L112.628963,88.2832031 C107.772838,88.2832031 103.83617,84.3429428 103.83617,79.4823854 L103.836834,79.3742658 L103.836834,79.3742658 L104.453831,29.1092837 C104.453831,27.825544 104.266389,26.654545 103.891504,25.5962865 L103.851156,25.4952094 C103.296927,24.1340244 102.416098,22.9692787 101.20867,22.0009722 C98.9767567,20.2110723 95.8005729,19.3161223 91.6801181,19.3161223 C91.4247908,19.3161223 91.173527,19.3187701 90.9263268,19.3240656 L90.5585742,19.3339948 C86.1821149,19.476975 83.1222506,20.4778362 81.3789812,22.3365784 C79.5213992,24.3172053 78.5773821,27.1636801 78.5469299,30.8760028 L78.5461686,31.0623405 L78.5461686,79.4823854 C78.5461686,84.3429428 74.6095012,88.2832031 69.7533758,88.2832031 L61.0544338,88.2832031 C56.2048072,88.2832031 52.2708369,84.3530889 52.2616568,79.4990448 L52.1755618,33.9755741 L52.2781138,33.8883739 L52.2782696,29.3843093 L52.2773699,29.2308017 C52.241381,26.1714726 51.1257244,23.7615295 48.9304001,22.0009722 C46.6984871,20.2110723 43.5223033,19.3161223 39.4018485,19.3161223 C39.1465212,19.3161223 38.8952574,19.3187701 38.6480572,19.3240656 L38.2803046,19.3339948 C33.9038453,19.476975 30.843981,20.4778362 29.1007116,22.3365784 C27.2431296,24.3172053 26.2991125,27.1636801 26.2686603,30.8760028 L26.267899,31.0623405 L26.267899,79.4823854 C26.267899,84.3429428 22.3312316,88.2832031 17.4751062,88.2832031 L8.79279279,88.2832031 C3.93666742,88.2832031 0,84.3429428 0,79.4823854 L0,10.082662 C0,5.22210458 3.93666742,1.28184425 8.79279279,1.28184425 L18.0530438,1.28184425 C22.5446137,1.28184425 26.1942548,4.88985962 26.2667985,9.36822532 L26.267899,9.50419695 L26.7829559,9.50419695 L26.9711139,9.32187575 C29.6804388,6.71916505 32.9226675,4.57053109 36.6978001,2.87597386 C40.5607264,1.14200832 45.4966878,0.275025555 51.5056843,0.275025555 C57.1713096,0.275025555 61.892664,1.16997551 65.6697475,2.95987542 C69.446831,4.74977532 72.5371721,6.70747835 74.9407707,8.83298449 C78.2027974,6.48374086 81.8081953,4.47010346 85.7569644,2.7920723 C88.5525391,1.60409163 92.1225668,0.836632968 96.4670477,0.489696317 C98.669699,0.163155556 101.074507,0 103.681246,0 C109.346871,0 114.068226,0.894949954 117.845309,2.68484986 C121.622393,4.47474977 124.712734,6.43245279 127.116333,8.55795893 C130.378359,6.2087153 133.983757,4.19507791 137.932526,2.51704675 C139.985886,1.64447054 142.45706,0.998764148 145.346048,0.57992757 L145.793804,0.517281073 L146.020155,0.48730025 L146.020155,0.48730025 L146.4778,0.430023453 C146.708271,0.402280004 146.941214,0.375878981 147.176629,0.350820382 L147.650756,0.302493084 L147.890292,0.279671861 L147.890292,0.279671861 L148.374308,0.236714263 C148.942839,0.188685282 149.52483,0.147965059 150.120282,0.114553594 L150.633965,0.0877050955 L150.893279,0.0756232711 L150.893279,0.0756232711 L151.416852,0.0541444722 C151.592475,0.0475815059 151.769196,0.0416151729 151.947017,0.0362454731 L152.483775,0.0219262739 C152.663793,0.0177498408 152.84491,0.0141700409 153.027125,0.0111868744 L153.577069,0.00402727479 C153.853689,0.00134242493 154.132781,0 154.414345,0 Z" id="Path"></path>
                    </g>
                </g>
                <path d="M72,21 L206.956522,21 L206.956522,21 C212.66087,21 214.443478,21.7136564 216.93913,23.4977974 C236.191304,42.7665198 281.469565,87.0132159 300.365217,107.352423 C302.86087,110.207048 303.930435,108.779736 304.286957,119.484581 C304.510893,190.309353 304.73483,261.134125 304.958766,331.958896 C304.981467,339.138562 299.179601,344.977234 291.999935,344.999935 C291.986234,344.999978 291.972532,345 291.958831,345 L72,345 C64.8202983,345 59,339.179702 59,332 L59,34 C59,26.8202983 64.8202983,21 72,21 Z" id="Hoja" fill="url(#linearGradient-9)"></path>
                <g id="Solapa" transform="translate(59.000000, 21.000000)">
                    <mask id="mask-11" fill="white">
                        <use xlink:href="#path-10"></use>
                    </mask>
                    <g id="Mask"></g>
                    <g id="Sombra" mask="url(#mask-11)">
                        <use fill="black" fill-opacity="1" filter="url(#filter-13)" xlink:href="#path-12"></use>
                        <use fill="#FFFFFF" fill-rule="evenodd" xlink:href="#path-12"></use>
                    </g>
                </g>
                <path d="M214,22 C215.18125,22 217.189375,23.2855246 220.024375,25.8565737 C220.024375,25.8565737 238.642281,43.1410871 256.879375,61.2669323 C276.999321,81.2641439 296.96875,101.904 296.96875,101.904 C300.835938,106.128 299.078125,103.664 304,110 C278.333333,110 252.666667,110 227,110 C219.820298,110 214,104.179702 214,97 L214,22 L214,22 Z" id="Solapa" fill="url(#linearGradient-14)"></path>
                <path d="M144.28028,329.167217 C154.415636,329.167217 160.284714,322.83807 160.284714,311.916722 C160.284714,301.114342 154.368495,294.832783 144.28028,294.832783 L132,294.832783 L132,329.167217 L144.28028,329.167217 Z M143.691015,324.575017 L137.279813,324.575017 L137.279813,299.424983 L143.691015,299.424983 C150.738623,299.424983 154.910618,304.064772 154.910618,311.988103 C154.910618,319.982816 150.809335,324.575017 143.691015,324.575017 Z M181.92252,330 C191.751459,330 197.785531,323.004627 197.785531,311.988103 C197.785531,300.947786 191.704317,294 181.92252,294 C172.164294,294 166.035939,300.923992 166.035939,311.988103 C166.035939,323.02842 172.02287,330 181.92252,330 Z M181.92252,325.28883 C175.369895,325.28883 171.433606,320.054197 171.433606,311.988103 C171.433606,303.850628 175.487748,298.71117 181.92252,298.71117 C188.357293,298.71117 192.387865,303.850628 192.387865,311.988103 C192.387865,320.054197 188.380863,325.28883 181.92252,325.28883 Z M218.881214,330 C226.470945,330 232.057176,325.598149 233,318.912095 L227.743757,318.912095 C226.800933,322.814276 223.383197,325.265036 218.881214,325.265036 C212.752859,325.265036 208.934422,320.173166 208.934422,312.011897 C208.934422,303.850628 212.752859,298.734964 218.857643,298.734964 C223.336056,298.734964 226.753792,301.447455 227.743757,305.706543 L233,305.706543 C232.151459,298.830139 226.353092,294 218.857643,294 C209.405834,294 203.536756,300.900198 203.536756,312.011897 C203.536756,323.099802 209.429405,330 218.881214,330 Z" id="DOC" fill="#F1F1F1" fill-rule="nonzero"></path>
            </g>
            <g id="docImage-Copy" transform="translate(74.000000, 73.000000)">
                <g id="hoja-shadow">
                    <mask id="mask-16" fill="white">
                        <use xlink:href="#path-15"></use>
                    </mask>
                    <g id="Mask"></g>
                    <g id="Hoja" mask="url(#mask-16)" fill="black" fill-opacity="1">
                        <use filter="url(#filter-18)" xlink:href="#path-17"></use>
                    </g>
                </g>
                <g id="Icon-Background-Fill-Artwork" transform="translate(58.000000, 20.000000)">
                    <mask id="mask-20" fill="white">
                        <use xlink:href="#path-19"></use>
                    </mask>
                    <use id="Hoja" fill="url(#linearGradient-5)" xlink:href="#path-19"></use>
                    <g id="Group" mask="url(#mask-20)">
                        <g transform="translate(-59.000000, -20.000000)" id="Icon-Background-Fill-Artwork">
                            <rect id="Fill" fill="url(#linearGradient-8)" x="0" y="0" width="365" height="365"></rect>
                        </g>
                    </g>
                </g>
                <g id="Group" transform="translate(91.000000, 57.000000)" fill="#FFFFFF" fill-rule="nonzero">
                    <g id="m-de-maqueteer" transform="translate(0.000000, 94.716797)">
                        <path d="M154.414345,0 C157.676372,0 161.024241,0.363573419 164.457954,1.09072026 C167.891666,1.81786709 170.982007,3.02045609 173.728977,4.69848726 C176.475947,6.37651842 178.70786,8.52999175 180.424716,11.1589072 C182.110356,13.7400243 182.968501,16.8872896 183,20.6007032 L183,79.2073598 C183,84.0679172 179.063333,88.0081776 174.207207,88.0081776 L165.524894,88.0081776 C160.668768,88.0081776 156.732101,84.0679172 156.732101,79.2073598 L156.732101,29.1092837 C156.732101,25.9769589 155.616144,23.5158465 153.384232,21.7259466 C151.152319,19.9360467 147.976135,19.0410968 143.85568,19.0410968 C143.600353,19.0410968 143.349089,19.0437445 143.101889,19.0490401 L142.734136,19.0589693 C138.357677,19.2019494 135.297812,20.2028106 133.554543,22.0615528 C132.025683,23.6916834 131.115664,25.9083314 130.824485,28.7114969 L130.824445,79.4823854 C130.824434,84.3429401 126.887768,88.2832031 122.031645,88.2832031 L112.628963,88.2832031 C107.772838,88.2832031 103.83617,84.3429428 103.83617,79.4823854 L103.836834,79.3742658 L103.836834,79.3742658 L104.453831,29.1092837 C104.453831,27.825544 104.266389,26.654545 103.891504,25.5962865 L103.851156,25.4952094 C103.296927,24.1340244 102.416098,22.9692787 101.20867,22.0009722 C98.9767567,20.2110723 95.8005729,19.3161223 91.6801181,19.3161223 C91.4247908,19.3161223 91.173527,19.3187701 90.9263268,19.3240656 L90.5585742,19.3339948 C86.1821149,19.476975 83.1222506,20.4778362 81.3789812,22.3365784 C79.5213992,24.3172053 78.5773821,27.1636801 78.5469299,30.8760028 L78.5461686,31.0623405 L78.5461686,79.4823854 C78.5461686,84.3429428 74.6095012,88.2832031 69.7533758,88.2832031 L61.0544338,88.2832031 C56.2048072,88.2832031 52.2708369,84.3530889 52.2616568,79.4990448 L52.1755618,33.9755741 L52.2781138,33.8883739 L52.2782696,29.3843093 L52.2773699,29.2308017 C52.241381,26.1714726 51.1257244,23.7615295 48.9304001,22.0009722 C46.6984871,20.2110723 43.5223033,19.3161223 39.4018485,19.3161223 C39.1465212,19.3161223 38.8952574,19.3187701 38.6480572,19.3240656 L38.2803046,19.3339948 C33.9038453,19.476975 30.843981,20.4778362 29.1007116,22.3365784 C27.2431296,24.3172053 26.2991125,27.1636801 26.2686603,30.8760028 L26.267899,31.0623405 L26.267899,79.4823854 C26.267899,84.3429428 22.3312316,88.2832031 17.4751062,88.2832031 L8.79279279,88.2832031 C3.93666742,88.2832031 0,84.3429428 0,79.4823854 L0,10.082662 C0,5.22210458 3.93666742,1.28184425 8.79279279,1.28184425 L18.0530438,1.28184425 C22.5446137,1.28184425 26.1942548,4.88985962 26.2667985,9.36822532 L26.267899,9.50419695 L26.7829559,9.50419695 L26.9711139,9.32187575 C29.6804388,6.71916505 32.9226675,4.57053109 36.6978001,2.87597386 C40.5607264,1.14200832 45.4966878,0.275025555 51.5056843,0.275025555 C57.1713096,0.275025555 61.892664,1.16997551 65.6697475,2.95987542 C69.446831,4.74977532 72.5371721,6.70747835 74.9407707,8.83298449 C78.2027974,6.48374086 81.8081953,4.47010346 85.7569644,2.7920723 C88.5525391,1.60409163 92.1225668,0.836632968 96.4670477,0.489696317 C98.669699,0.163155556 101.074507,0 103.681246,0 C109.346871,0 114.068226,0.894949954 117.845309,2.68484986 C121.622393,4.47474977 124.712734,6.43245279 127.116333,8.55795893 C130.378359,6.2087153 133.983757,4.19507791 137.932526,2.51704675 C139.985886,1.64447054 142.45706,0.998764148 145.346048,0.57992757 L145.793804,0.517281073 L146.020155,0.48730025 L146.020155,0.48730025 L146.4778,0.430023453 C146.708271,0.402280004 146.941214,0.375878981 147.176629,0.350820382 L147.650756,0.302493084 L147.890292,0.279671861 L147.890292,0.279671861 L148.374308,0.236714263 C148.942839,0.188685282 149.52483,0.147965059 150.120282,0.114553594 L150.633965,0.0877050955 L150.893279,0.0756232711 L150.893279,0.0756232711 L151.416852,0.0541444722 C151.592475,0.0475815059 151.769196,0.0416151729 151.947017,0.0362454731 L152.483775,0.0219262739 C152.663793,0.0177498408 152.84491,0.0141700409 153.027125,0.0111868744 L153.577069,0.00402727479 C153.853689,0.00134242493 154.132781,0 154.414345,0 Z" id="Path"></path>
                    </g>
                </g>
                <path d="M72,21 L206.956522,21 L206.956522,21 C212.66087,21 214.443478,21.7136564 216.93913,23.4977974 C236.191304,42.7665198 281.469565,87.0132159 300.365217,107.352423 C302.86087,110.207048 303.930435,108.779736 304.286957,119.484581 C304.510893,190.309353 304.73483,261.134125 304.958766,331.958896 C304.981467,339.138562 299.179601,344.977234 291.999935,344.999935 C291.986234,344.999978 291.972532,345 291.958831,345 L72,345 C64.8202983,345 59,339.179702 59,332 L59,34 C59,26.8202983 64.8202983,21 72,21 Z" id="Hoja" fill="url(#linearGradient-9)"></path>
                <g id="Solapa" transform="translate(59.000000, 21.000000)">
                    <mask id="mask-22" fill="white">
                        <use xlink:href="#path-21"></use>
                    </mask>
                    <g id="Mask"></g>
                    <g id="Sombra" mask="url(#mask-22)">
                        <use fill="black" fill-opacity="1" filter="url(#filter-24)" xlink:href="#path-23"></use>
                        <use fill="#FFFFFF" fill-rule="evenodd" xlink:href="#path-23"></use>
                    </g>
                </g>
                <path d="M214,22 C215.18125,22 217.189375,23.2855246 220.024375,25.8565737 C220.024375,25.8565737 238.642281,43.1410871 256.879375,61.2669323 C276.999321,81.2641439 296.96875,101.904 296.96875,101.904 C300.835938,106.128 299.078125,103.664 304,110 C278.333333,110 252.666667,110 227,110 C219.820298,110 214,104.179702 214,97 L214,22 L214,22 Z" id="Solapa" fill="url(#linearGradient-14)"></path>
                <path d="M144.28028,329.167217 C154.415636,329.167217 160.284714,322.83807 160.284714,311.916722 C160.284714,301.114342 154.368495,294.832783 144.28028,294.832783 L132,294.832783 L132,329.167217 L144.28028,329.167217 Z M143.691015,324.575017 L137.279813,324.575017 L137.279813,299.424983 L143.691015,299.424983 C150.738623,299.424983 154.910618,304.064772 154.910618,311.988103 C154.910618,319.982816 150.809335,324.575017 143.691015,324.575017 Z M181.92252,330 C191.751459,330 197.785531,323.004627 197.785531,311.988103 C197.785531,300.947786 191.704317,294 181.92252,294 C172.164294,294 166.035939,300.923992 166.035939,311.988103 C166.035939,323.02842 172.02287,330 181.92252,330 Z M181.92252,325.28883 C175.369895,325.28883 171.433606,320.054197 171.433606,311.988103 C171.433606,303.850628 175.487748,298.71117 181.92252,298.71117 C188.357293,298.71117 192.387865,303.850628 192.387865,311.988103 C192.387865,320.054197 188.380863,325.28883 181.92252,325.28883 Z M218.881214,330 C226.470945,330 232.057176,325.598149 233,318.912095 L227.743757,318.912095 C226.800933,322.814276 223.383197,325.265036 218.881214,325.265036 C212.752859,325.265036 208.934422,320.173166 208.934422,312.011897 C208.934422,303.850628 212.752859,298.734964 218.857643,298.734964 C223.336056,298.734964 226.753792,301.447455 227.743757,305.706543 L233,305.706543 C232.151459,298.830139 226.353092,294 218.857643,294 C209.405834,294 203.536756,300.900198 203.536756,312.011897 C203.536756,323.099802 209.429405,330 218.881214,330 Z" id="DOC" fill="#F1F1F1" fill-rule="nonzero"></path>
            </g>
            <g id="docImage-Copy-2" transform="translate(115.000000, 44.000000)">
                <g id="hoja-shadow">
                    <mask id="mask-26" fill="white">
                        <use xlink:href="#path-25"></use>
                    </mask>
                    <g id="Mask"></g>
                    <g id="Hoja" mask="url(#mask-26)" fill="black" fill-opacity="1">
                        <use filter="url(#filter-28)" xlink:href="#path-27"></use>
                    </g>
                </g>
                <g id="Icon-Background-Fill-Artwork" transform="translate(58.000000, 20.000000)">
                    <mask id="mask-30" fill="white">
                        <use xlink:href="#path-29"></use>
                    </mask>
                    <use id="Hoja" fill="url(#linearGradient-5)" xlink:href="#path-29"></use>
                    <g id="Group" mask="url(#mask-30)">
                        <g transform="translate(-59.000000, -20.000000)" id="Icon-Background-Fill-Artwork">
                            <rect id="Fill" fill="url(#linearGradient-8)" x="0" y="0" width="365" height="365"></rect>
                        </g>
                    </g>
                </g>
                <g id="Group" transform="translate(91.000000, 57.000000)" fill="#FFFFFF" fill-rule="nonzero">
                    <g id="m-de-maqueteer" transform="translate(0.000000, 94.716797)">
                        <path d="M154.414345,0 C157.676372,0 161.024241,0.363573419 164.457954,1.09072026 C167.891666,1.81786709 170.982007,3.02045609 173.728977,4.69848726 C176.475947,6.37651842 178.70786,8.52999175 180.424716,11.1589072 C182.110356,13.7400243 182.968501,16.8872896 183,20.6007032 L183,79.2073598 C183,84.0679172 179.063333,88.0081776 174.207207,88.0081776 L165.524894,88.0081776 C160.668768,88.0081776 156.732101,84.0679172 156.732101,79.2073598 L156.732101,29.1092837 C156.732101,25.9769589 155.616144,23.5158465 153.384232,21.7259466 C151.152319,19.9360467 147.976135,19.0410968 143.85568,19.0410968 C143.600353,19.0410968 143.349089,19.0437445 143.101889,19.0490401 L142.734136,19.0589693 C138.357677,19.2019494 135.297812,20.2028106 133.554543,22.0615528 C132.025683,23.6916834 131.115664,25.9083314 130.824485,28.7114969 L130.824445,79.4823854 C130.824434,84.3429401 126.887768,88.2832031 122.031645,88.2832031 L112.628963,88.2832031 C107.772838,88.2832031 103.83617,84.3429428 103.83617,79.4823854 L103.836834,79.3742658 L103.836834,79.3742658 L104.453831,29.1092837 C104.453831,27.825544 104.266389,26.654545 103.891504,25.5962865 L103.851156,25.4952094 C103.296927,24.1340244 102.416098,22.9692787 101.20867,22.0009722 C98.9767567,20.2110723 95.8005729,19.3161223 91.6801181,19.3161223 C91.4247908,19.3161223 91.173527,19.3187701 90.9263268,19.3240656 L90.5585742,19.3339948 C86.1821149,19.476975 83.1222506,20.4778362 81.3789812,22.3365784 C79.5213992,24.3172053 78.5773821,27.1636801 78.5469299,30.8760028 L78.5461686,31.0623405 L78.5461686,79.4823854 C78.5461686,84.3429428 74.6095012,88.2832031 69.7533758,88.2832031 L61.0544338,88.2832031 C56.2048072,88.2832031 52.2708369,84.3530889 52.2616568,79.4990448 L52.1755618,33.9755741 L52.2781138,33.8883739 L52.2782696,29.3843093 L52.2773699,29.2308017 C52.241381,26.1714726 51.1257244,23.7615295 48.9304001,22.0009722 C46.6984871,20.2110723 43.5223033,19.3161223 39.4018485,19.3161223 C39.1465212,19.3161223 38.8952574,19.3187701 38.6480572,19.3240656 L38.2803046,19.3339948 C33.9038453,19.476975 30.843981,20.4778362 29.1007116,22.3365784 C27.2431296,24.3172053 26.2991125,27.1636801 26.2686603,30.8760028 L26.267899,31.0623405 L26.267899,79.4823854 C26.267899,84.3429428 22.3312316,88.2832031 17.4751062,88.2832031 L8.79279279,88.2832031 C3.93666742,88.2832031 0,84.3429428 0,79.4823854 L0,10.082662 C0,5.22210458 3.93666742,1.28184425 8.79279279,1.28184425 L18.0530438,1.28184425 C22.5446137,1.28184425 26.1942548,4.88985962 26.2667985,9.36822532 L26.267899,9.50419695 L26.7829559,9.50419695 L26.9711139,9.32187575 C29.6804388,6.71916505 32.9226675,4.57053109 36.6978001,2.87597386 C40.5607264,1.14200832 45.4966878,0.275025555 51.5056843,0.275025555 C57.1713096,0.275025555 61.892664,1.16997551 65.6697475,2.95987542 C69.446831,4.74977532 72.5371721,6.70747835 74.9407707,8.83298449 C78.2027974,6.48374086 81.8081953,4.47010346 85.7569644,2.7920723 C88.5525391,1.60409163 92.1225668,0.836632968 96.4670477,0.489696317 C98.669699,0.163155556 101.074507,0 103.681246,0 C109.346871,0 114.068226,0.894949954 117.845309,2.68484986 C121.622393,4.47474977 124.712734,6.43245279 127.116333,8.55795893 C130.378359,6.2087153 133.983757,4.19507791 137.932526,2.51704675 C139.985886,1.64447054 142.45706,0.998764148 145.346048,0.57992757 L145.793804,0.517281073 L146.020155,0.48730025 L146.020155,0.48730025 L146.4778,0.430023453 C146.708271,0.402280004 146.941214,0.375878981 147.176629,0.350820382 L147.650756,0.302493084 L147.890292,0.279671861 L147.890292,0.279671861 L148.374308,0.236714263 C148.942839,0.188685282 149.52483,0.147965059 150.120282,0.114553594 L150.633965,0.0877050955 L150.893279,0.0756232711 L150.893279,0.0756232711 L151.416852,0.0541444722 C151.592475,0.0475815059 151.769196,0.0416151729 151.947017,0.0362454731 L152.483775,0.0219262739 C152.663793,0.0177498408 152.84491,0.0141700409 153.027125,0.0111868744 L153.577069,0.00402727479 C153.853689,0.00134242493 154.132781,0 154.414345,0 Z" id="Path"></path>
                    </g>
                </g>
                <path d="M72,21 L206.956522,21 L206.956522,21 C212.66087,21 214.443478,21.7136564 216.93913,23.4977974 C236.191304,42.7665198 281.469565,87.0132159 300.365217,107.352423 C302.86087,110.207048 303.930435,108.779736 304.286957,119.484581 C304.510893,190.309353 304.73483,261.134125 304.958766,331.958896 C304.981467,339.138562 299.179601,344.977234 291.999935,344.999935 C291.986234,344.999978 291.972532,345 291.958831,345 L72,345 C64.8202983,345 59,339.179702 59,332 L59,34 C59,26.8202983 64.8202983,21 72,21 Z" id="Hoja" fill="url(#linearGradient-9)"></path>
                <g id="Solapa" transform="translate(59.000000, 21.000000)">
                    <mask id="mask-32" fill="white">
                        <use xlink:href="#path-31"></use>
                    </mask>
                    <g id="Mask"></g>
                    <g id="Sombra" mask="url(#mask-32)">
                        <use fill="black" fill-opacity="1" filter="url(#filter-34)" xlink:href="#path-33"></use>
                        <use fill="#FFFFFF" fill-rule="evenodd" xlink:href="#path-33"></use>
                    </g>
                </g>
                <path d="M214,22 C215.18125,22 217.189375,23.2855246 220.024375,25.8565737 C220.024375,25.8565737 238.642281,43.1410871 256.879375,61.2669323 C276.999321,81.2641439 296.96875,101.904 296.96875,101.904 C300.835938,106.128 299.078125,103.664 304,110 C278.333333,110 252.666667,110 227,110 C219.820298,110 214,104.179702 214,97 L214,22 L214,22 Z" id="Solapa" fill="url(#linearGradient-14)"></path>
                <path d="M144.28028,329.167217 C154.415636,329.167217 160.284714,322.83807 160.284714,311.916722 C160.284714,301.114342 154.368495,294.832783 144.28028,294.832783 L132,294.832783 L132,329.167217 L144.28028,329.167217 Z M143.691015,324.575017 L137.279813,324.575017 L137.279813,299.424983 L143.691015,299.424983 C150.738623,299.424983 154.910618,304.064772 154.910618,311.988103 C154.910618,319.982816 150.809335,324.575017 143.691015,324.575017 Z M181.92252,330 C191.751459,330 197.785531,323.004627 197.785531,311.988103 C197.785531,300.947786 191.704317,294 181.92252,294 C172.164294,294 166.035939,300.923992 166.035939,311.988103 C166.035939,323.02842 172.02287,330 181.92252,330 Z M181.92252,325.28883 C175.369895,325.28883 171.433606,320.054197 171.433606,311.988103 C171.433606,303.850628 175.487748,298.71117 181.92252,298.71117 C188.357293,298.71117 192.387865,303.850628 192.387865,311.988103 C192.387865,320.054197 188.380863,325.28883 181.92252,325.28883 Z M218.881214,330 C226.470945,330 232.057176,325.598149 233,318.912095 L227.743757,318.912095 C226.800933,322.814276 223.383197,325.265036 218.881214,325.265036 C212.752859,325.265036 208.934422,320.173166 208.934422,312.011897 C208.934422,303.850628 212.752859,298.734964 218.857643,298.734964 C223.336056,298.734964 226.753792,301.447455 227.743757,305.706543 L233,305.706543 C232.151459,298.830139 226.353092,294 218.857643,294 C209.405834,294 203.536756,300.900198 203.536756,312.011897 C203.536756,323.099802 209.429405,330 218.881214,330 Z" id="DOC" fill="#F1F1F1" fill-rule="nonzero"></path>
            </g>
        </g>
    </g>
</svg>